**ABCDEFGHIJKLMNOPQRSTUVWXYZabcdefghijklmnopqrstuvwxyz**************************
**PARASOLID !"#$%&'()*+,-./:;<=>?@[\]^_`{|}~0123456789**************************
**PART1;
MC=AMD64;
MC_MODEL=Intel64 Family 6 Model 167 Stepping 1, GenuineIntel;
MC_ID=unknown;
OS=Windows_NT;
OS_RELEASE=unknown;
FRU=Parasolid Version 31.0, build 282,  2-25-2019;
APPL=SOLIDWORKS 2019-2019227;
SITE=;
USER=unknown;
FORMAT=text;
GUISE=transmit;
KEY=LRG1080L 加强筋;
FILE=LRG1080L 加强筋.x_t;
DATE=Sat Nov 26 15:12:13 2022;
**PART2;
SCH=SCH_3100282_31001;
USFLD_SIZE=0;
**PART3;
**END_OF_HEADER*****************************************************************
T51 : TRANSMIT FILE created by modeller version 310028223 SCH_3100282_31001_1300
6215 0 12 34 CCCCCCI4 mesh1006 0 I8 polyline1008 0 CCCCCCCDI5 owner1040 0 CCCCCC
I13 boundary_mesh1006 0 I17 boundary_polyline1008 0 CCCA16 index_map_offset0 0 1
 dA9 index_map82 0 A17 node_id_index_map82 0 A20 schema_embedding_map82 0 A5 chi
ld12 0 A14 lowest_node_id0 0 1 dA16 mesh_offset_data206 0 Z1 1073 2 3 0 0 0 0 0
 0 1e3 1e-8 0 4 0 1 0 1 1 5 6 7 8 0 0 9 10 11 0 0 0 0 0 0 0 81 255 2 2 1048 12 1
 13 0 0 0 0 14 70 11 CI9 list_type0 0 1 uI10 notransmit0 0 1 lCCCDCCDI12 finger_
index0 0 1 dI12 finger_block1012 0 CZ3 0 4 T1 0 0 10 20 1 15 15 13 255 5 141 0 1
 0 16 0 0 17 0 50 255 6 716 0 18 19 0 0 -.03 .002 -.16 0 .707106781186548 .70710
6781186548 -1 0 0 30 255 7 618 0 10 20 0 0 +.03 .03 -.158 566139107698473e-31 .7
07106781186553 .707106781186543 29 255 8 597 0 11 21 0 .03 .002 -.16 19 8 CCCCCC
CA5 owner12 0 Z9 47 0 1 17 0 22 V0 16 255 10 616 0 ?23 0 24 7 0 0 1 18 255 11 59
5 0 25 0 26 8 ?1 17 255 25 0 27 28 29 11 30 24 0 31 +18 26 592 0 32 11 33 21 ?1
 17 32 0 34 31 35 26 36 37 0 28 +18 33 577 0 38 26 39 40 ?1 29 21 594 0 26 40 8
 .03 .028 -.16 29 40 579 0 33 41 21 -979717439317883e-32 .002 -.16 29 41 576 0 3
9 42 40 -979717439317883e-32 .028 -.16 18 39 574 0 43 33 44 41 ?1 29 42 561 0 44
 45 41 .03 0 -.158 18 44 559 0 46 39 47 42 ?1 29 45 558 0 47 48 42 -967470971326
409e-32 0 -.158 18 47 556 0 49 44 50 45 ?1 29 48 539 0 50 51 45 .108 0 0 18 50 5
37 0 52 47 53 48 ?1 29 51 524 0 53 54 48 .11 .002 0 18 53 522 0 55 50 56 51 ?1 2
9 54 521 0 56 57 51 .11 .028 0 18 56 519 0 58 53 59 54 ?1 29 57 506 0 59 60 54 .
11 .002 -.03 18 59 504 0 61 56 62 57 ?1 29 60 503 0 62 63 57 .11 .028 -.03 18 62
 501 0 64 59 65 60 ?1 29 63 500 0 65 66 60 .108 0 -.03 18 65 498 0 67 62 68 63 ?
1 29 66 485 0 68 69 63 .03 .03 -.158 18 68 483 0 23 65 70 66 ?1 29 69 482 0 70 7
1 66 .108 .03 -.03 18 70 480 0 72 68 73 69 ?1 29 71 479 0 73 74 69 .108 .03 0 18
 73 477 0 75 70 76 71 ?1 29 74 476 0 76 77 71 -967470971326409e-32 .03 -.158 18
 76 474 0 78 73 79 74 ?1 29 77 205 0 79 80 74 .04 .03 -.03 18 79 203 0 81 76 82
 77 ?1 29 80 202 0 82 83 77 .04 0 -.03 18 82 200 0 84 79 85 80 ?1 29 83 194 0 85
 86 80 .03 .03 -.04 18 85 192 0 87 82 88 83 ?1 29 86 191 0 88 89 83 .03 0 -.04 1
8 88 189 0 90 85 91 86 ?1 29 89 110 0 92 93 86 0 0 0 18 92 97 0 94 91 95 89 ?1 2
9 93 31 0 91 96 89 0 .03 0 18 91 29 0 97 88 92 93 ?1 29 96 293 0 95 0 93 .094 .0
18 -.0165021515475689 18 95 271 0 98 92 0 96 ?1 17 98 0 99 98 98 95 0 0 0 0 ?15
 255 99 279 0 98 100 101 14 255 100 276 102 ?103 104 99 5 105 -0 0 103 104 22 15
 101 280 0 106 100 0 17 106 0 101 106 106 0 107 108 0 0 +17 107 0 109 107 107 0
 106 108 0 0 -16 108 270 0 ?106 110 111 112 0 0 1 16 110 557 0 ?94 113 108 114 0
 0 1 16 111 269 0 ?115 108 116 117 0 0 1 31 255 112 291 0 108 117 118 0 +.094 .0
18 -.015 0 0 1 1 0 0 .0025 31 117 292 0 111 119 112 0 +.094 .018 124913973513029
6e-33 0 0 1 1 0 0 .0025 30 118 7 0 120 112 121 0 +-979717439317883e-32 .03 -.16
 612323399573677e-31 0 1 16 120 475 0 ?97 122 123 118 0 0 1 30 121 11 0 122 118
 124 0 +0 .03 0 1 0 0 16 122 9 0 ?125 126 120 121 0 0 1 30 124 19 0 126 121 127
 0 +.11 .03 -.03 -1 0 867361737988404e-31 16 126 481 0 ?81 128 122 124 0 0 1 30
 127 23 0 128 124 114 0 +.03 .03 -.03 -800641604296988e-31 0 -1 16 128 193 0 ?12
9 130 126 127 0 0 1 30 114 104 0 110 127 131 0 +-979717439317883e-32 0 -.16 6123
23399573677e-31 0 1 30 131 103 0 113 114 132 0 +0 0 0 1 0 0 16 113 84 0 ?133 134
 110 131 0 0 1 30 132 101 0 134 131 135 0 +.11 0 -.03 -1 0 867361737988404e-31 1
6 134 499 0 ?84 123 113 132 0 0 1 30 135 100 0 123 132 136 0 +.03 0 -.03 -800641
604296988e-31 0 -1 16 123 190 0 ?29 120 134 135 0 0 1 30 136 135 0 130 135 137 0
 +-979717439317883e-32 .03 -.16 0 -1 0 16 130 575 0 ?138 139 128 136 0 0 1 30 13
7 136 0 139 136 140 0 +.03 .03 -.16 0 -1 0 16 139 593 0 ?31 141 130 137 0 0 1 30
 140 138 0 141 137 142 0 +.11 .03 -.03 0 -1 0 16 141 502 0 ?143 144 139 140 0 0
 1 30 142 139 0 144 140 145 0 +.11 .03 0 0 -1 0 16 144 520 0 ?146 147 141 142 0
 0 1 30 145 140 0 147 142 148 0 +0 .03 0 0 -1 0 16 147 116 0 ?149 150 144 145 0
 0 1 30 148 197 0 150 145 151 0 +.03 0 -.04 0 -1 0 16 150 195 0 ?152 153 147 148
 0 0 1 30 151 208 0 153 148 154 0 -.04 .03 -.03 0 -1 0 16 153 206 0 ?155 156 150
 151 0 0 1 31 154 219 0 156 151 157 0 +.04 0 -.04 0 1 0 0 0 1 .01 16 156 211 0 ?
158 159 153 154 0 0 1 31 157 220 0 159 154 160 0 -.04 .03 -.04 0 1 0 0 0 1 .01 1
6 159 215 0 ?87 161 156 157 0 0 1 30 160 488 0 161 157 162 0 +-979717439317883e-
32 .03 -.158 -1 0 0 16 161 486 0 ?163 164 159 160 0 0 1 30 162 494 0 164 160 165
 0 +.108 .03 -.03 0 0 -1 16 164 492 0 ?166 167 161 162 0 0 1 30 165 509 0 167 16
2 168 0 -.11 .002 -.03 .707106781186548 .707106781186548 -61331736667335e-30 16
 167 507 0 ?67 169 164 165 0 0 1 30 168 515 0 169 165 170 0 +.108 .03 -.03 .7071
06781186543 -.707106781186553 -613317366673345e-31 16 169 513 0 ?64 171 167 168
 0 0 1 30 170 527 0 171 168 172 0 +.11 .002 0 0 0 -1 16 171 525 0 ?173 174 169 1
70 0 0 1 30 172 533 0 174 170 175 0 +.11 .028 0 0 0 1 16 174 531 0 ?58 176 171 1
72 0 0 1 30 175 542 0 176 172 177 0 -.11 .002 0 -.707106781186548 -.707106781186
548 0 16 176 540 0 ?55 178 174 175 0 0 1 30 177 550 0 178 175 179 0 +.108 .03 0
 -.707106781186543 .707106781186553 0 16 178 548 0 ?75 180 176 177 0 0 1 30 179
 564 0 180 177 181 0 +0 0 -.158 1 0 0 16 180 562 0 ?46 182 178 179 0 0 1 30 181
 570 0 182 179 183 0 +.108 0 0 0 0 1 16 182 568 0 ?52 184 180 181 0 0 1 30 183 5
82 0 184 181 185 0 --1040834085586084e-32 .002 -.16 -432978028117747e-31 .707106
781186548 -.707106781186548 16 184 580 0 ?49 186 182 183 0 0 1 30 185 588 0 186
 183 187 0 +0 .03 -.158 -4329780281177435e-32 -.707106781186553 -.70710678118654
3 16 186 586 0 ?43 188 184 185 0 0 1 30 187 600 0 188 185 189 0 +.03 .002 -.16 -
1 0 0 16 188 598 0 ?190 37 186 187 0 0 1 30 189 606 0 37 187 20 0 +.03 .028 -.16
 1 0 0 16 37 604 0 ?32 24 188 189 0 0 1 30 20 612 0 24 189 7 0 -.03 .002 -.16 56
6139107698477e-31 -.707106781186548 .707106781186548 16 24 610 0 ?25 10 37 20 0
 0 1 17 190 0 34 35 31 33 191 188 0 138 +15 34 117 0 35 192 0 17 35 0 34 32 190
 39 138 130 0 36 -17 31 0 34 190 32 11 28 139 0 191 +17 191 0 193 30 38 11 190 1
88 0 0 -17 138 0 194 49 43 33 35 130 0 0 +15 194 127 0 195 16 0 17 49 0 194 94 1
38 47 38 184 0 196 +17 43 0 194 138 195 39 78 186 0 35 +17 195 0 194 43 197 76 9
7 120 0 0 -17 78 0 198 199 36 76 43 186 0 163 -15 198 684 0 200 201 0 17 199 0 1
98 200 78 68 163 161 0 0 -17 36 0 198 78 200 39 32 37 0 0 -17 163 0 202 97 129 7
6 199 161 0 195 +15 202 4 0 125 203 0 17 97 0 202 125 163 91 195 120 0 204 +17 1
29 0 202 163 87 68 205 128 0 199 +17 87 0 202 129 81 85 206 159 0 205 +17 205 0
 27 152 23 85 129 128 0 207 -15 27 119 0 28 208 0 17 152 0 27 29 205 88 207 150
 0 209 +17 23 0 27 205 28 68 200 10 0 129 +17 207 0 210 206 90 85 152 150 0 0 -1
5 210 228 0 206 104 0 17 206 0 210 211 207 79 87 159 0 0 -17 90 0 210 207 211 88
 158 156 0 152 -17 211 0 210 90 206 82 155 153 0 0 -17 158 0 212 213 209 82 90 1
56 0 211 +15 212 67 0 213 214 0 17 213 0 212 52 158 65 84 134 0 215 -17 209 0 21
2 158 46 88 29 123 0 0 -17 46 0 212 209 196 44 216 180 0 29 +17 29 0 27 25 152 4
4 209 123 0 30 +17 30 0 193 216 191 44 25 24 0 0 -15 193 705 0 30 18 0 17 216 0
 193 38 30 47 46 180 0 0 -17 38 0 193 191 216 33 49 184 0 190 -14 18 704 217 ?0
 201 193 5 6 +0 0 0 201 22 81 1 217 1050 218 18 219 0 102 220 221 14 201 683 220
 ?18 222 198 5 19 +0 0 18 222 22 13 22 48 0 0 0 0 0 0 9 16 14 16 128 223 ?224 0
 225 5 226 -0 0 224 0 22 81 1 223 1052 218 16 227 0 220 228 229 14 224 126 228 ?
230 16 231 5 232 -0 0 230 16 22 15 225 386 0 233 16 234 50 226 134 0 16 232 235
 0 +-979717439317883e-32 .03 -.16 1 0 -612323399573677e-31 -612323399573677e-31
 0 -1 50 232 133 0 224 236 226 0 +0 .03 0 0 0 -1 -1 0 0 51 255 235 239 0 104 226
 237 0 +.04 .03 -.04 0 1 0 .01 0 0 1 14 104 227 238 ?100 214 210 5 235 -0 0 100
 214 22 50 237 653 0 239 235 240 0 +.108 .03 0 .707106781186552 .707106781186543
 0 0 0 1 14 239 641 241 ?222 242 243 5 237 +0 0 222 242 22 50 240 674 0 222 237
 19 0 -.11 .002 0 -.707106781186548 .707106781186548 0 0 0 -1 14 222 662 244 ?20
1 239 245 5 240 +0 0 201 239 22 50 19 695 0 201 240 6 0 +0 .03 -.158 0 .70710678
1186543 -.707106781186552 1 0 0 81 1 244 1058 218 222 246 0 241 247 248 15 245 6
63 0 249 222 0 17 249 0 245 215 250 50 55 176 0 0 -17 215 0 245 61 249 65 52 182
 0 0 -17 250 0 245 249 61 53 173 171 0 0 -17 55 0 251 252 133 53 249 176 0 146 +
15 251 125 0 252 224 0 17 252 0 251 75 55 56 146 144 0 253 -17 133 0 251 55 149
 50 254 113 0 249 +17 146 0 255 173 58 53 252 144 0 250 +15 255 123 0 256 230 0
 17 173 0 255 256 146 59 250 171 0 143 +17 58 0 255 146 256 56 257 174 0 252 +17
 256 0 255 58 173 62 143 141 0 257 -17 257 0 243 72 253 62 58 174 0 0 -15 243 64
2 0 253 239 0 17 72 0 243 258 257 70 64 169 0 166 -17 253 0 243 257 258 56 75 17
8 0 0 -17 258 0 243 253 72 73 166 164 0 0 -17 75 0 251 204 252 73 253 178 0 125
 +17 204 0 251 149 75 91 125 122 0 197 -17 125 0 202 166 97 73 204 122 0 258 +17
 166 0 202 81 125 70 258 164 0 259 +17 81 0 202 87 166 79 259 126 0 155 +17 259
 0 260 64 155 70 81 126 0 0 -15 260 121 0 259 261 0 17 64 0 260 143 259 62 72 16
9 0 256 +17 155 0 260 259 84 79 211 153 0 206 +17 84 0 260 155 67 82 213 134 0 1
58 +17 67 0 260 84 143 65 61 167 0 213 +17 143 0 260 67 64 59 256 141 0 0 +17 61
 0 245 250 215 59 67 167 0 173 -14 261 122 247 ?208 230 260 5 262 -0 0 208 230 2
2 81 1 247 1059 218 261 263 0 244 264 265 14 208 120 264 ?192 261 266 5 267 -0 0
 192 261 22 14 230 124 268 ?261 224 255 5 236 -0 0 261 224 22 50 262 131 0 261 2
67 236 0 +.11 .03 -.03 867361737988404e-31 0 1 1 0 -867361737988404e-31 50 267 1
30 0 208 269 262 0 +.03 .03 -.03 -1 0 800641604296988e-31 800641604296988e-31 0
 1 50 236 132 0 230 262 232 0 +.11 .03 0 -1 0 0 0 0 1 50 269 129 0 192 270 267 0
 +.03 .03 -.16 0 0 1 1 0 0 14 192 118 271 ?203 208 34 5 269 -0 0 203 208 22 50 2
70 98 0 214 272 269 0 +0 0 0 0 1 0 0 0 1 14 214 66 273 ?104 203 212 5 270 -0 0 1
04 203 22 50 272 3 0 203 105 270 0 +0 .03 0 0 1 0 0 0 1 14 203 1 274 ?214 192 20
2 5 272 +0 0 214 192 22 52 255 105 289 0 100 275 272 0 +.094 .018 -.015 0 0 1 .0
025 .857167300702113 .515038074910054 1 0 0 51 275 290 0 103 276 105 0 +.094 .01
8 0 0 0 1 .0025 1 0 0 14 103 281 277 ?278 100 109 5 275 -0 0 278 100 22 51 276 3
77 0 278 279 275 0 +.03 .0150000000000009 -.13 1 0 -800641604296988e-31 .0033 -8
00641604296988e-31 0 -1 14 278 358 280 ?281 103 282 5 276 -0 0 281 103 22 50 279
 378 0 281 283 276 0 +.0232 .0183000000000009 -.13 -1 0 800641604296988e-31 8006
41604296988e-31 0 1 14 281 363 284 ?285 278 286 5 279 -0 0 285 278 22 51 283 379
 0 285 287 279 0 +.03 .0150000000000009 -.13 1 0 -800641604296988e-31 .0055 -800
641604296988e-31 0 -1 14 285 368 288 ?289 281 290 5 283 -0 0 289 281 22 51 287 4
37 0 289 291 283 0 +.03 .0150000000000009 -.05 1 0 -800641604296988e-31 .0033 -8
00641604296988e-31 0 -1 14 289 418 292 ?293 285 294 5 287 -0 0 293 285 22 50 291
 438 0 293 295 287 0 +.0232 .0183000000000009 -.05 -1 0 800641604296988e-31 8006
41604296988e-31 0 1 14 293 423 296 ?242 289 297 5 291 -0 0 242 289 22 51 295 439
 0 242 0 291 0 +.03 .0150000000000009 -.05 1 0 -800641604296988e-31 .0055 -80064
1604296988e-31 0 -1 14 242 428 298 ?239 293 299 5 295 -0 0 239 293 22 81 1 298 1
073 218 242 300 0 296 0 301 15 299 431 0 302 242 303 17 302 0 299 302 302 0 304
 305 0 0 -15 303 432 0 306 242 0 17 306 0 303 306 306 0 307 308 0 0 +17 307 0 26
6 307 307 0 306 308 0 0 -16 308 406 0 ?306 305 0 309 0 0 1 16 305 409 0 ?304 310
 308 311 0 0 1 31 309 443 0 308 0 311 0 +.03 .0150000000000009 -.05 1 0 -8006416
04296988e-31 -800641604296988e-31 0 -1 .0055 31 311 442 0 305 309 312 0 +.0232 .
0150000000000009 -.05 1 0 -800641604296988e-31 -800641604296988e-31 0 -1 .0055 3
1 312 441 0 310 311 313 0 +.0232 .0150000000000009 -.05 1 0 -800641604296988e-31
 -800641604296988e-31 0 -1 .0033 16 310 408 0 ?314 315 305 312 0 0 1 31 313 440
 0 315 312 316 0 +-1387778780781446e-32 .0150000000000009 -.05 1 0 -800641604296
988e-31 -800641604296988e-31 0 -1 .0033 16 315 407 0 ?233 317 310 313 0 0 1 31 3
16 383 0 317 313 318 0 +.03 .0150000000000009 -.13 1 0 -800641604296988e-31 -800
641604296988e-31 0 -1 .0055 16 317 346 0 ?319 320 315 316 0 0 1 31 318 382 0 320
 316 321 0 +.0232 .0150000000000009 -.13 1 0 -800641604296988e-31 -8006416042969
88e-31 0 -1 .0055 16 320 349 0 ?322 323 317 318 0 0 1 31 321 381 0 323 318 119 0
 +.0232 .0150000000000009 -.13 1 0 -800641604296988e-31 -800641604296988e-31 0 -
1 .0033 16 323 348 0 ?324 116 320 321 0 0 1 31 119 380 0 116 321 117 0 +-2081668
17117217e-31 .0150000000000009 -.13 1 0 -800641604296988e-31 -800641604296988e-3
1 0 -1 .0033 16 116 347 0 ?325 111 323 119 0 0 1 17 325 0 234 325 325 0 326 116
 0 0 +15 234 326 0 325 16 194 17 326 0 282 326 326 0 325 116 0 0 -15 282 361 0 3
26 278 327 15 327 362 0 324 278 0 17 324 0 327 324 324 0 328 323 0 0 +17 328 0 2
86 328 328 0 324 323 0 0 -15 286 366 0 328 281 329 15 329 367 0 322 281 0 17 322
 0 329 322 322 0 330 320 0 0 +17 330 0 290 330 330 0 322 320 0 0 -15 290 371 0 3
30 285 331 15 331 372 0 319 285 0 17 319 0 331 319 319 0 332 317 0 0 +17 332 0 3
33 332 332 0 319 317 0 0 -15 333 336 0 332 208 27 17 233 0 225 233 233 0 334 315
 0 0 +17 334 0 294 334 334 0 233 315 0 0 -15 294 421 0 334 289 335 15 335 422 0
 314 289 0 17 314 0 335 314 314 0 336 310 0 0 +17 336 0 297 336 336 0 314 310 0
 0 -15 297 426 0 336 293 337 15 337 427 0 304 293 0 17 304 0 337 304 304 0 302 3
05 0 0 +15 266 396 0 307 208 333 80 255 1 218 338 339 9000 1 1 1 1 1 1 1 1 0 FFF
FTFTFFFFFFF1 81 1 300 996 340 242 0 298 341 342 343 81 1 296 1072 218 293 341 0
 292 298 344 82 255 1 301 1616183570 81 1 341 995 340 293 0 296 345 300 346 81 1
 292 1071 218 289 345 0 288 296 347 82 1 344 1616773394 81 1 345 994 340 289 0 2
92 348 341 349 81 1 288 1070 218 285 348 0 284 292 350 82 1 347 1617363218 81 1
 348 993 340 285 0 288 351 345 352 81 1 284 1069 218 281 351 0 280 288 353 82 1
 350 1638138130 81 1 351 992 340 281 0 284 354 348 355 81 1 280 1068 218 278 354
 0 356 284 357 82 1 353 1638727954 81 1 354 991 340 278 0 280 358 351 359 81 1 3
56 1065 218 103 358 360 274 280 361 82 1 357 1639317778 81 1 358 990 340 103 362
 356 363 354 364 81 3 360 1066 365 103 356 277 366 277 367 0 0 81 1 274 1064 218
 203 368 0 273 356 369 82 1 361 -1525153520 81 1 368 986 340 203 0 274 370 371 3
72 81 1 273 1063 218 214 371 0 271 274 373 82 1 369 277872916 81 1 371 987 340 2
14 0 273 368 374 375 81 1 271 1062 218 192 370 0 268 273 376 82 1 373 276758804
 81 1 370 985 340 192 0 271 377 368 378 81 1 268 1061 218 230 379 0 264 271 380
 82 1 376 277676308 81 1 379 982 340 230 0 268 381 263 382 81 1 264 1060 218 208
 377 0 247 268 383 82 1 380 277283092 81 1 377 984 340 208 0 264 263 370 384 82
 1 383 277545236 80 1 340 0 385 8001 0 0 0 0 3 5 0 0 0 FFFFTFTFFFFFFF2 81 1 263
 983 340 261 0 247 379 377 386 83 255 3 384 .866666666666667 .866666666666667 .8
90196078431373 83 3 386 .866666666666667 .866666666666667 .890196078431373 79 25
5 15 385 SDL/TYSA_COLOUR81 1 381 981 340 224 0 387 227 379 388 83 3 382 .8666666
66666667 .866666666666667 .890196078431373 81 3 387 1053 365 224 381 366 0 366 3
89 0 0 81 1 227 980 340 16 0 223 0 381 390 83 3 388 .866666666666667 .8666666666
66667 .890196078431373 83 3 390 .866666666666667 .866666666666667 .8901960784313
73 80 3 365 391 392 9000 0 0 0 0 3 6 0 0 0 FFTTTTTTFFFFTT1 1 1 81 3 366 1054 365
 224 387 228 387 360 393 0 0 82 3 389 739295 368 1 81 1 228 1055 218 224 366 0 2
23 238 394 82 3 393 739293 368 2 81 1 238 1056 218 104 374 0 228 241 395 82 1 39
4 277020948 81 1 374 988 340 104 0 238 371 363 396 81 1 241 1057 218 239 342 0 2
38 244 397 82 1 395 576913671 81 1 342 997 340 239 0 241 300 246 398 82 1 397 -1
665072876 81 1 246 998 340 222 0 244 342 399 400 83 3 398 .866666666666667 .8666
66666666667 .890196078431373 81 1 399 999 340 201 0 220 246 219 401 83 3 400 .86
6666666666667 .866666666666667 .890196078431373 81 1 220 1051 218 201 399 0 217
 223 402 81 1 219 1000 340 18 0 217 399 0 403 83 3 401 .866666666666667 .8666666
66666667 .890196078431373 83 3 403 .866666666666667 .866666666666667 .8901960784
31373 82 1 402 -1661140716 81 1 363 989 340 100 0 102 374 358 404 83 3 396 .8666
66666666667 .866666666666667 .890196078431373 81 1 102 1049 218 100 363 0 0 217
 405 83 3 404 .866666666666667 .866666666666667 .890196078431373 82 1 405 -15245
63696 79 12 392 GENERIC_PERM83 3 378 .866666666666667 .866666666666667 .89019607
8431373 83 3 375 .866666666666667 .866666666666667 .890196078431373 83 3 372 .86
6666666666667 .866666666666667 .890196078431373 81 3 277 1067 365 103 360 0 360
 0 406 0 0 82 3 367 739294 368 2 82 3 406 739294 368 1 81 3 362 978 407 103 0 35
8 0 0 408 0 0 83 3 364 .866666666666667 .866666666666667 .890196078431373 80 3 4
07 409 410 9000 0 0 0 0 3 5 0 0 0 FFFFTFFFFFFFFF5 5 5 86 255 3 408 0 0 1 .094 .0
18 -.012 1e100 1e100 1e100 79 12 410 TexSplitFace83 3 359 .866666666666667 .8666
66666666667 .890196078431373 83 3 355 .866666666666667 .866666666666667 .8901960
78431373 83 3 352 .866666666666667 .866666666666667 .890196078431373 83 3 349 .8
66666666666667 .866666666666667 .890196078431373 83 3 346 .866666666666667 .8666
66666666667 .890196078431373 83 3 343 .866666666666667 .866666666666667 .8901960
78431373 79 14 339 SWEntUnchanged15 109 284 0 107 103 411 15 411 285 0 115 103 0
 17 115 0 411 115 115 0 412 111 0 0 +17 412 0 231 412 412 0 115 111 0 0 -15 231
 259 0 412 224 251 82 1 265 277414164 17 149 0 251 133 204 92 197 147 0 0 +17 19
7 0 194 195 94 91 149 147 0 0 -17 94 0 194 197 49 92 196 110 0 254 +17 196 0 212
 46 254 47 94 110 0 216 -17 254 0 212 196 52 92 133 113 0 149 -17 52 0 212 254 2
13 50 215 182 0 133 +82 1 248 -1663106796 82 1 229 276889876 82 1 221 -165917463
6 17 28 0 27 23 25 26 31 139 0 200 -17 200 0 198 36 199 26 23 10 0 0 -19 17 142
 0 1 0 9 5 S0 74 4 CI16 index_map_offset0 0 1 dCCZ20 15 10 0 0 413 414 298 277 4
15 416 13 362 219 2 0 0 0 0 0 0 0 0 0 0 81 2 413 174 417 1 0 414 0 0 0 418 81 2
 414 178 419 1 413 415 0 0 0 420 81 2 415 316 421 1 414 416 0 0 0 422 81 2 416 7
93 423 1 415 13 0 0 424 0 81 2 13 977 425 1 416 2 0 0 0 0 80 2 425 426 427 9000
 0 0 0 0 3 5 0 0 0 FFTFFFFFFFFFFF9 1 79 16 427 BODY_RECIPE_200180 2 423 428 429
 8004 0 0 0 0 3 5 0 0 0 FFTFFFFFFFFFFF2 3 83 1 424 27e2 79 16 429 SDL/TYSA_DENSI
TY80 2 421 430 431 9000 0 0 0 0 3 5 0 0 0 FFTFFFFFFFFFFF9 1 82 1 422 1 79 24 431
 BODY_IN_LIGHTWEIGHT_PERM80 2 419 432 433 9000 0 0 0 0 3 5 0 0 0 FFTFFFFFFFFFFF9
 1 82 1 420 400 79 30 433 LAST_BODY_MODIFYING_FEATURE_ID80 2 417 434 435 9000 0
 0 0 0 3 5 0 0 0 FFTFFFFFFFFFFT9 1 82 1 418 279 79 19 435 ENT_TIME_STAMP_200180
 2 12 436 437 9000 0 0 0 0 3 5 0 0 0 FFTFFFFFFFFFFF9 1 82 1 14 122 79 12 437 ATO
M_ID_20011 0 
