**ABCDEFGHIJKLMNOPQRSTUVWXYZabcdefghijklmnopqrstuvwxyz**************************
**PARASOLID !"#$%&'()*+,-./:;<=>?@[\]^_`{|}~0123456789**************************
**PART1;
MC=AMD64;
MC_MODEL=Intel64 Family 6 Model 167 Stepping 1, GenuineIntel;
MC_ID=unknown;
OS=Windows_NT;
OS_RELEASE=unknown;
FRU=Parasolid Version 31.0, build 282,  2-25-2019;
APPL=SOLIDWORKS 2019-2019227;
SITE=;
USER=unknown;
FORMAT=text;
GUISE=transmit;
KEY=LRG1140L 真空发生器固定板;
FILE=LRG1140L 真空发生器固定板.x_t;
DATE=Sat Nov 26 15:17:01 2022;
**PART2;
SCH=SCH_3100282_31001;
USFLD_SIZE=0;
**PART3;
**END_OF_HEADER*****************************************************************
T51 : TRANSMIT FILE created by modeller version 310028223 SCH_3100282_31001_1300
6215 0 12 34 CCCCCCI4 mesh1006 0 I8 polyline1008 0 CCCCCCCDI5 owner1040 0 CCCCCC
I13 boundary_mesh1006 0 I17 boundary_polyline1008 0 CCCA16 index_map_offset0 0 1
 dA9 index_map82 0 A17 node_id_index_map82 0 A20 schema_embedding_map82 0 A5 chi
ld12 0 A14 lowest_node_id0 0 1 dA16 mesh_offset_data206 0 Z1 959 2 3 0 0 0 0 0 0
 1e3 1e-8 0 4 0 1 0 1 1 5 6 7 8 0 0 9 10 11 0 0 0 0 0 0 0 81 255 2 2 928 12 1 13
 0 0 0 0 14 70 11 CI9 list_type0 0 1 uI10 notransmit0 0 1 lCCCDCCDI12 finger_ind
ex0 0 1 dI12 finger_block1012 0 CZ3 0 4 T1 0 0 10 20 1 15 15 13 255 5 99 0 1 0 1
6 0 0 17 0 50 255 6 757 0 18 19 0 0 -.029 .01 .02 -.707106781186548 -.7071067811
86548 0 0 0 -1 30 255 7 653 0 10 20 0 0 +-.029 .01 .02 0 0 1 29 255 8 600 0 11 2
1 0 -.03 -.009 .02 19 8 CCCCCCCA5 owner12 0 Z9 33 0 1 17 0 22 V0 16 255 10 651 0
 ?23 0 24 7 0 0 1 18 255 11 598 0 25 0 26 8 ?1 17 255 25 0 27 28 29 11 30 31 0 3
2 +18 26 595 0 33 11 34 21 ?1 17 33 0 35 32 36 26 37 38 0 28 +18 34 592 0 23 26
 39 40 ?1 29 21 597 0 26 40 8 -.03 .009 .02 29 40 594 0 34 41 21 -.029 .01 .02 2
9 41 591 0 39 42 40 .029 .01 .02 18 39 589 0 43 34 44 41 ?1 29 42 576 0 44 45 41
 .029 -.01 .02 18 44 574 0 46 39 47 42 ?1 29 45 573 0 47 48 42 -.029 -.01 .02 18
 47 571 0 49 44 50 45 ?1 29 48 546 0 50 51 45 -.029 .01 0 18 50 544 0 52 47 53 4
8 ?1 29 51 543 0 53 54 48 .029 .01 0 18 53 541 0 55 50 56 51 ?1 29 54 540 0 56 5
7 51 -.03 -.009 0 18 56 538 0 58 53 59 54 ?1 29 57 537 0 59 60 54 -.03 .009 0 18
 59 535 0 61 56 62 57 ?1 29 60 534 0 62 63 57 .029 -.01 0 18 62 532 0 64 59 65 6
0 ?1 29 63 531 0 65 66 60 -.029 -.01 0 18 65 529 0 67 62 68 63 ?1 29 66 512 0 68
 69 63 .03 .009 .02 18 68 510 0 70 65 71 66 ?1 29 69 509 0 71 72 66 .03 -.009 .0
2 18 71 507 0 73 68 74 69 ?1 29 72 506 0 74 75 69 .03 .009 0 18 74 504 0 76 71 7
7 72 ?1 29 75 503 0 77 78 72 .03 -.009 0 18 77 501 0 79 74 80 75 ?1 29 78 393 0
 80 81 75 .014 .003218695387886205 .01494469412603044 18 80 391 0 82 77 83 78 ?1
 29 81 377 0 83 84 78 .014 -.003218695387886205 .00505530587396955 18 83 375 0 8
5 80 86 81 ?1 29 84 341 0 86 87 81 .017 -1734723475976805e-33 .00135621327627873
4 18 86 319 0 88 83 89 84 ?1 29 87 468 0 89 90 84 .014 -.003218695387886205 .014
94469412603044 18 89 425 0 91 86 92 87 ?1 29 90 470 0 92 93 87 .014 .00321869538
7886205 .00505530587396955 18 92 426 0 94 89 95 90 ?1 29 93 471 0 95 0 90 .01045
49223477374 -652188683316278e-32 .01 18 95 428 0 96 92 0 93 ?1 17 96 0 97 96 96
 95 0 0 0 0 ?15 255 97 442 0 96 98 99 14 255 98 439 100 ?101 102 97 5 103 -0 0 1
01 102 22 15 99 443 0 85 98 0 17 85 0 99 94 91 83 104 105 0 106 +17 94 0 99 82 8
5 92 107 108 0 109 -17 91 0 99 85 82 89 110 111 0 104 -17 104 0 112 113 106 89 8
5 105 0 114 -16 105 418 0 ?85 115 116 117 115 115 1 17 106 0 112 104 109 83 118
 119 0 107 -15 112 434 0 109 102 0 17 109 0 112 106 113 92 82 115 0 118 -17 118
 0 120 107 107 92 106 119 0 0 +16 119 379 0 ?118 111 108 121 0 0 1 17 107 0 120
 118 118 83 94 108 0 0 +15 120 373 0 107 122 123 16 108 376 0 ?107 119 124 125 0
 0 1 16 124 572 0 ?126 108 127 128 0 0 1 38 12 CCCCCCCCCCCA17 intersection_data2
04 0 Z125 378 0 108 129 121 0 +130 103 131 132 133 134 30 129 71 0 135 136 125 0
 +-.03 -.01 0 1 0 0 38 121 381 0 119 125 137 0 +130 138 139 140 141 142 51 255 1
30 338 0 122 103 143 144 +.017 -1734723475976805e-33 .02 0 0 1 .0044 1 0 0 52 25
5 103 463 0 98 138 130 145 +.014 -1734723475976805e-33 .01 1 0 0 .0059 .85716730
0702112 .515038074910055 0 0 -1 40 255 8 131 0 1 8 .0002654481180818715 .3854435
347093765 ??.0141402 .003343881570869385 .00485838378922437 .01341735282852952 .
00255433733965474 .0057829702626034 .01295258777156256 .001725819878520055 .0062
1838094025868 .01266261657744616 .000739665495852741 .00640100165262528 .0126173
8787175256 -.000390782462936031 .00642233196112218 .01293254505846766 -.00167803
763325024 .00623342537791174 .0134655727931212 -.002620653414565675 .00572941164
221269 .0141402 -.00334388157086939 .00485838378922437 41 3 CI8 term_use0 0 1 cC
Z1 132 L?.0141402 .003343881570869385 .00485838378922437 41 1 133 L?.0141402 -.0
0334388157086939 .00485838378922437 204 2 17 INTERSECTION_DATA17 Intersection da
ta7 uv_type0 0 1 u6 values0 1 1 fT32 134 4 2.278320951259755 -.01514161621077565
 .576625528038377 1402e-7 2.52221170877256 -.0142170297373966 .544614439206377 -
.000582647171470483 2.738536100616445 -.01378161905974132 .4281390993280795 -.00
1047412228437442 2.97268485174122 -.01359899834737472 .202697402309812 -.0013373
83422553838 3.23052402661136 -.01357766803887782 6.17438835554306 -.001382612128
247442 3.53287287256873 -.01376657462208826 5.86407353539099 -.00106745494153234
 3.779608827500565 -.0142705883577873 5.73278828495884 -.000534427206878816 4.00
486435591983 -.01514161621077565 5.70655977914121 1402e-7 51 138 464 0 102 0 103
 146 +.03 -1734723475976805e-33 .01 1 0 0 .0059 0 0 -1 141 255 145 125 147 147 1
03 141 147 137 145 145 103 38 137 394 0 111 121 148 0 +130 103 149 150 151 152 1
6 111 392 0 ?110 153 119 137 0 0 1 38 148 397 0 153 137 154 0 +130 138 155 156 1
57 158 40 8 149 0 1 8 .000265448118081872 .3854435347093765 ??.0141402 -.0033438
8157086939 .01514161621077565 .01341735282852952 -.002554337339654745 .014217029
7373966 .01295258777156256 -.00172581987852006 .01378161905974132 .0126626165774
4616 -.000739665495852745 .01359899834737472 .01261738787175256 .000390782462936
0275 .01357766803887782 .01293254505846766 .00167803763325024 .01376657462208826
 .0134655727931212 .002620653414565675 .0142705883577873 .0141402 .0033438815708
69385 .01514161621077565 41 1 150 L?.0141402 -.00334388157086939 .01514161621077
565 41 1 151 L?.0141402 .003343881570869385 .01514161621077565 204 32 152 4 4.00
486435591983 -.00485838378922437 3.71821818162817 1402e-7 3.76097359840703 -.005
7829702626034 3.68620709279617 -.000582647171470482 3.54464920656314 -.006218380
94025868 3.569731752917875 -.001047412228437442 3.310500455438365 -.006401001652
62528 3.344290055899605 -.001337383422553838 3.052661280568225 -.006422331961122
18 3.03279570195327 -.001382612128247442 2.750312434610855 -.00623342537791174 2
.7224808818012 -.00106745494153234 2.503576479679025 -.00572941164221269 2.59119
5631369045 -.000534427206878817 2.278320951259755 -.00485838378922437 2.56496712
5551415 1402e-7 16 153 395 0 ?114 159 111 148 0 0 1 30 154 515 0 159 148 160 0 +
.03 .009 .02 0 0 1 40 18 155 0 1 18 .000284334524469276 .392215596086315 ??.014
 .003218695387886205 .01494469412603044 .01522914998288875 .0040279138790318 .01
43111378756777 .0163280846882848 .004348393934992845 .01398766475347632 .0173340
406067853 .00438730177592315 .01394481724886992 .01830332671615895 .004202539645
37471 .01414109412221624 .01955437353019845 .003582621368247205 .014687731235019
62 .0205637616656119 .002580620621229495 .0153056947904384 .0211774028951795 .00
138177604963543 .015735912738933 .0213999796069059 -1339622380623382e-20 .015899
9847916065 .02122706141291085 -.00122145479305623 .01577217880773975 .0207576586
3592545 -.002289104972659595 .0154378303048316 .01993956110386025 -.003273985417
90765 .01490826033165806 .0186436674086251 -.00408146511069538 .0142604744512995
6 .0175776610103677 -.004361915606370775 .0139728695225113 .01642980955232855 -.
004362898446375325 .01397179016900666 .01548553454424395 -.00413114928117123 .01
421231594454624 .0142088260338419 -.00340137441200483 .01482085595194036 .014 -.
00321869538788632 .01494469412603042 41 1 156 L?.014 .003218695387886205 .014944
69412603044 41 1 157 L?.014 -.00321869538788632 .01494469412603042 204 72 158 4
 2.32104157078142 -.00505530587396955 2.56455744907861 -.016 1.985005289285255 -
.00568886212432229 2.39014501338868 -.01477085001711124 1.72410418695037 -.00601
233524652367 2.3129481213086 -.01367191531171522 1.494804890247336 -.00605518275
113007 2.303138447889655 -.0126659593932147 1.270073557483036 -.0058589058777837
7 2.348830263274185 -.01169667328384104 .95140528032034 -.00531226876498039 2.48
9030682919475 -.01044562646980156 .626736572984752 -.00469430520956161 2.6888946
855195 -.00943623833438809 .319445342046009 -.004264087261067 2.905197741610555
 -.00882259710482053 6.28014070615629 -.004100015208393525 3.143863201948555 -.0
0860002039309412 6.00188679017101 -.004227821192260245 3.350127014487405 -.00877
293858708915 5.73604032399422 -.00456216969516839 3.540035778118735 -.0092423413
6407456 5.44401721475818 -.00509173966834194 3.729850776043975 -.010060438896139
76 5.09523372065064 -.00573952554870044 3.905535150746865 -.01135633259137492 4.
84405567560043 -.00602713047748871 3.97363435945379 -.01242233898963232 4.582434
77114867 -.00602820983099334 3.97388178100174 -.01357019044767148 4.361005913375
02 -.00578768405545377 3.917262952022355 -.01451446545575604 4.025211594436435 -
.00517914404805963 3.756036446190125 -.0157911739661581 3.962143736398165 -.0050
5530587396957 3.718627858100995 -.016 16 159 513 0 ?70 161 153 154 0 0 1 30 160
 523 0 161 154 162 0 +.03 -.009 .02 0 0 -1 16 161 521 0 ?163 164 159 160 0 0 1 3
0 162 549 0 164 160 165 0 -.0195 .0195 0 -.707106781186548 .707106781186548 0 16
 164 547 0 ?76 166 161 162 0 0 1 30 165 555 0 166 162 167 0 --.0195 .0195 0 -.70
7106781186548 -.707106781186548 0 16 166 553 0 ?52 168 164 165 0 0 1 30 167 561
 0 168 165 169 0 --.0195 -.0195 0 .707106781186548 -.707106781186548 0 16 168 55
9 0 ?58 170 166 167 0 0 1 30 169 567 0 170 167 171 0 -.0195 -.0195 0 .7071067811
86548 .707106781186548 0 16 170 565 0 ?64 172 168 169 0 0 1 30 171 579 0 172 169
 173 0 +-.029 -.01 .02 0 0 -1 16 172 577 0 ?174 175 170 171 0 0 1 30 173 585 0 1
75 171 176 0 +.029 -.01 .02 0 0 1 16 175 583 0 ?46 177 172 173 0 0 1 30 176 603
 0 177 173 178 0 -.029 .01 .02 .707106781186548 -.707106781186548 0 16 177 601 0
 ?43 38 175 176 0 0 1 30 178 611 0 38 176 179 0 --.03 .009 .02 .707106781186548
 .707106781186548 0 16 38 609 0 ?33 180 177 178 0 0 1 30 179 619 0 180 178 181 0
 --.029 -.01 .02 -.707106781186548 .707106781186548 0 16 180 617 0 ?49 182 38 17
9 0 0 1 30 181 627 0 182 179 183 0 -.03 -.009 .02 -.707106781186548 -.7071067811
86548 0 16 182 625 0 ?73 184 180 181 0 0 1 30 183 635 0 184 181 185 0 +-.03 .009
 .02 0 0 -1 16 184 633 0 ?186 31 182 183 0 0 1 30 185 641 0 31 183 20 0 +-.03 -.
009 .02 0 0 1 16 31 639 0 ?25 24 184 185 0 0 1 30 20 647 0 24 185 7 0 +.029 .01
 .02 0 0 -1 16 24 645 0 ?187 10 31 20 0 0 1 17 187 0 188 189 190 53 191 24 0 192
 +15 188 87 0 189 193 0 17 189 0 188 23 187 50 192 194 0 195 +17 190 0 188 187 2
3 39 36 196 0 191 -17 191 0 197 198 55 39 187 24 0 0 -17 192 0 199 76 52 53 189
 194 0 0 -15 199 49 0 200 201 0 17 76 0 199 200 192 74 55 164 0 202 +17 52 0 199
 192 203 50 61 166 0 189 +16 194 542 0 ?189 204 205 206 0 0 1 16 204 536 0 ?29 1
35 194 136 0 0 1 16 205 502 0 ?202 194 207 208 0 0 1 30 206 73 0 194 208 136 0 +
-.03 .01 0 -1 0 0 30 208 74 0 205 128 206 0 +.03 -.01 0 0 1 0 30 136 72 0 204 20
6 129 0 +-.03 -.01 0 0 -1 0 30 128 19 0 124 209 208 0 +-.03 -.01 .02 1 0 0 30 20
9 15 0 127 210 128 0 +-.03 -.01 .02 0 -1 0 16 127 596 0 ?32 124 196 209 0 0 1 30
 210 11 0 196 211 209 0 +-.03 .01 .02 -1 0 0 16 196 590 0 ?36 127 212 210 0 0 1
 30 211 7 0 212 213 210 0 +.03 -.01 .02 0 1 0 16 212 508 0 ?214 196 135 211 0 0
 1 31 255 213 206 0 207 215 211 0 +.006 1155557966632342e-48 0 0 0 1 1 0 0 .0027
5 16 207 173 0 ?216 205 217 213 0 0 1 31 215 207 0 217 218 213 0 +.006 115555796
6632342e-48 .0143 0 0 1 1 0 0 .00275 16 217 174 0 ?219 207 220 215 0 0 1 31 218
 208 0 220 221 215 0 +.006 1155557966632342e-48 .0143 0 0 1 1 0 0 .005 16 220 17
5 0 ?222 217 223 218 0 0 1 31 221 209 0 223 224 218 0 +.006 1155557966632342e-48
 .02 0 0 1 1 0 0 .005 16 223 172 0 ?225 220 226 221 0 0 1 31 224 266 0 226 227 2
21 0 +-.024 0 0 0 0 1 1 0 0 .00275 16 226 233 0 ?228 223 229 224 0 0 1 31 227 26
7 0 229 230 224 0 +-.024 0 .0143 0 0 1 1 0 0 .00275 16 229 234 0 ?231 226 232 22
7 0 0 1 31 230 268 0 232 233 227 0 +-.024 0 .0143 0 0 1 1 0 0 .005 16 232 235 0
 ?234 229 235 230 0 0 1 31 233 269 0 235 236 230 0 +-.024 0 .02 0 0 1 1 0 0 .005
 16 235 232 0 ?237 232 238 233 0 0 1 31 236 339 0 238 239 233 0 +.017 -173472347
5976805e-33 .004 0 0 1 1 0 0 .0044 16 238 318 0 ?240 235 241 236 0 0 1 31 239 34
0 0 241 117 236 0 +.017 -1734723475976805e-33 .02 0 0 1 1 0 0 .0044 16 241 317 0
 ?242 238 115 239 0 0 1 31 117 465 0 115 243 239 0 +.014 -1734723475976805e-33 .
01 1 0 0 0 0 -1 .0059 16 115 416 0 ?82 241 105 117 105 105 1 31 243 466 0 116 0
 117 0 +.03 -1734723475976805e-33 .01 1 0 0 0 0 -1 .0059 16 116 423 0 ?244 105 0
 243 0 0 1 17 244 0 245 244 244 0 246 116 0 0 +15 245 433 0 244 102 112 17 246 0
 247 246 246 0 244 116 0 0 -15 247 405 0 246 248 249 14 248 90 250 ?193 16 247 5
 251 -0 0 193 16 22 15 249 89 0 252 248 0 17 252 0 249 163 70 71 214 212 0 253 -
17 163 0 249 202 252 77 253 161 0 200 +17 70 0 249 252 202 68 254 159 0 214 +17
 214 0 35 43 73 68 252 212 0 198 +17 253 0 255 256 79 71 163 161 0 0 -15 255 683
 0 256 257 0 17 256 0 255 258 253 44 73 182 0 0 -17 79 0 255 253 258 77 64 170 0
 163 -17 258 0 255 79 256 62 46 175 0 0 -17 64 0 199 259 200 62 79 170 0 260 +17
 259 0 199 58 64 65 260 135 0 0 -17 200 0 199 64 76 77 202 205 0 0 -17 260 0 261
 46 174 62 259 135 0 258 +15 261 83 0 260 262 0 17 46 0 261 263 260 44 258 175 0
 126 +17 174 0 261 260 263 65 264 172 0 259 +16 135 530 0 ?260 212 204 129 0 0 1
 17 263 0 261 174 46 47 126 124 0 264 -17 264 0 265 266 67 47 174 172 0 0 -15 26
5 704 0 266 267 0 17 266 0 265 30 264 11 49 180 0 0 -17 67 0 265 264 30 65 58 16
8 0 174 -17 30 0 265 67 266 56 25 31 0 0 -17 58 0 199 203 259 56 67 168 0 29 +17
 203 0 199 52 58 59 29 204 0 0 -17 29 0 27 25 186 56 203 204 0 30 +15 27 85 0 29
 268 0 17 186 0 27 29 28 59 269 184 0 203 +17 28 0 27 186 25 26 32 127 0 269 -17
 269 0 270 37 61 26 186 184 0 0 -15 270 725 0 37 271 0 17 37 0 270 195 269 34 33
 38 0 0 -17 61 0 270 269 195 59 52 166 0 186 -17 195 0 270 61 37 50 23 10 0 0 -1
7 23 0 188 190 189 34 195 10 0 36 +17 36 0 35 33 43 34 190 196 0 37 +15 35 4 0 1
26 272 0 17 43 0 35 36 214 39 198 177 0 190 +17 198 0 197 254 191 68 43 177 0 0
 -15 197 746 0 198 18 0 17 254 0 197 55 198 74 70 159 0 0 -17 55 0 197 191 254 5
3 76 164 0 187 -14 18 745 273 ?0 271 197 5 6 +0 0 0 271 22 81 1 273 934 274 18 2
75 0 250 276 277 14 271 724 276 ?18 267 270 5 19 +0 0 18 267 22 13 22 34 0 0 0 0
 0 0 9 16 14 16 382 278 ?248 0 279 5 130 -122 122 248 0 22 81 1 278 937 274 16 2
80 0 276 281 282 15 279 389 0 110 16 283 14 122 329 281 ?257 101 120 5 130 -16 1
6 257 101 22 81 1 281 938 274 122 284 0 278 285 286 14 257 682 285 ?267 122 255
 5 287 +0 0 267 122 22 14 101 324 288 ?122 98 289 5 143 -0 0 122 98 22 81 1 288
 940 274 101 290 0 285 291 292 15 289 327 0 88 101 293 52 143 337 0 101 130 294
 0 +.017 -1734723475976805e-33 .004 0 0 1 .0044 .857167300702112 .51503807491005
5 1 0 0 51 294 265 0 295 143 296 0 +-.024 0 .02 0 0 1 .005 1 0 0 14 295 254 291
 ?102 297 298 5 294 -0 0 102 297 22 50 296 264 0 297 294 299 0 +-.02125 0 .0143
 0 0 -1 -1 0 0 14 297 249 300 ?295 301 302 5 296 -0 0 295 301 22 51 299 263 0 30
1 296 303 0 +-.024 0 .02 0 0 1 .00275 1 0 0 14 301 244 304 ?297 305 306 5 299 -0
 0 297 305 22 51 303 205 0 305 299 307 0 +.006 1155557966632342e-48 .02 0 0 1 .0
05 1 0 0 14 305 194 308 ?301 309 310 5 303 -0 0 301 309 22 50 307 204 0 309 303
 311 0 +.00875 1155557966632342e-48 .0143 0 0 -1 -1 0 0 14 309 189 312 ?305 313
 314 5 307 -0 0 305 313 22 51 311 203 0 313 307 315 0 +.006 1155557966632342e-48
 .02 0 0 1 .00275 1 0 0 14 313 184 316 ?309 201 317 5 311 -0 0 309 201 22 50 315
 3 0 272 311 318 0 +0 0 .02 0 0 -1 -1 0 0 14 272 1 319 ?201 262 320 5 315 -0 0 2
01 262 22 50 318 70 0 201 315 321 0 +0 0 0 0 0 -1 -1 0 0 14 201 48 322 ?313 272
 323 5 318 +0 0 313 272 22 50 321 91 0 262 318 324 0 +-.03 -.01 .02 0 1 0 0 0 1
 14 262 84 325 ?272 268 261 5 321 -0 0 272 268 22 50 324 92 0 268 321 326 0 +-.0
3 -.01 .02 1 0 0 0 0 -1 14 268 86 327 ?262 193 27 5 324 -0 0 262 193 22 50 326 9
3 0 193 324 251 0 +-.03 .01 .02 0 -1 0 0 0 -1 14 193 88 328 ?268 248 188 5 326 -
0 0 268 248 22 50 251 94 0 248 326 287 0 +.03 -.01 .02 -1 0 0 0 0 1 50 287 694 0
 257 251 329 0 -.03 -.009 .02 -.707106781186548 .707106781186548 0 0 0 -1 50 329
 715 0 267 287 19 0 --.029 -.01 .02 .707106781186548 .707106781186548 0 0 0 -1 1
4 267 703 330 ?271 257 265 5 329 +0 0 271 257 22 50 19 736 0 271 329 6 0 --.03 .
009 .02 .707106781186548 -.707106781186548 0 0 0 -1 81 1 330 954 274 267 331 0 3
28 332 333 80 255 1 274 334 335 9000 1 1 1 1 1 1 1 1 0 FFFFTFTFFFFFFF1 81 1 331
 872 336 267 0 330 337 338 339 81 1 328 953 274 193 340 0 327 330 341 81 1 332 9
55 274 102 342 343 330 0 344 82 255 1 333 -1003355995 14 102 430 345 ?98 295 245
 5 138 -0 0 98 295 22 81 1 342 867 336 102 0 332 346 347 348 81 3 343 956 349 10
2 332 350 351 350 352 0 0 82 1 344 -1022361436 80 3 349 353 354 9000 0 0 0 0 3 6
 0 0 0 FFTTTTTTFFFFTT1 1 1 81 3 350 957 349 102 343 355 343 355 356 0 0 81 3 351
 948 349 272 357 319 357 343 358 0 0 82 3 352 739031 105 2 81 3 357 947 349 272
 359 351 280 351 360 0 0 81 1 319 949 274 272 351 0 316 322 361 82 3 358 739036
 105 2 81 1 316 946 274 313 362 0 312 319 363 81 1 322 950 274 201 364 0 319 325
 365 82 1 361 -1085472603 81 1 364 860 336 201 0 322 359 362 366 81 1 325 951 27
4 262 367 0 322 327 368 82 1 365 -1085603675 81 1 367 858 336 262 0 325 369 359
 370 81 1 327 952 274 268 369 0 325 328 371 82 1 368 -1085865819 81 1 369 857 33
6 268 0 327 340 367 372 82 1 371 -1085996891 80 1 336 0 373 8001 0 0 0 0 3 5 0 0
 0 FFFFTFTFFFFFFF2 81 1 340 856 336 193 0 328 374 369 375 83 255 3 372 .86666666
6666667 .866666666666667 .890196078431373 81 1 374 855 336 248 0 376 377 340 378
 83 3 375 .866666666666667 .866666666666667 .890196078431373 81 3 376 931 349 24
8 374 379 100 379 380 0 0 81 1 377 854 336 16 0 280 0 374 381 83 3 378 .86666666
6666667 .866666666666667 .890196078431373 81 3 280 936 349 16 377 278 379 357 38
2 0 0 83 3 381 .866666666666667 .866666666666667 .890196078431373 81 3 379 932 3
49 248 376 250 376 280 383 0 0 82 3 382 739031 105 2 81 1 250 933 274 248 379 0
 384 273 385 82 3 383 739040 115 2 81 1 384 929 274 98 347 100 0 250 386 82 1 38
5 -1092484955 81 1 347 868 336 98 0 384 342 290 387 81 3 100 930 349 98 384 0 0
 376 388 0 0 82 1 386 -1023278940 82 3 388 739030 105 2 81 1 290 869 336 101 0 2
88 347 284 389 83 3 387 .866666666666667 .866666666666667 .890196078431373 81 1
 284 870 336 122 0 281 290 337 390 83 3 389 .866666666666667 .866666666666667 .8
90196078431373 81 1 337 871 336 257 0 285 284 331 391 83 3 390 .866666666666667
 .866666666666667 .890196078431373 81 1 285 939 274 257 337 0 281 288 392 83 3 3
91 .866666666666667 .866666666666667 .890196078431373 82 1 392 -1005322075 82 3
 380 739042 115 1 79 255 15 373 SDL/TYSA_COLOUR81 1 359 859 336 272 0 357 367 36
4 393 83 3 370 .866666666666667 .866666666666667 .890196078431373 83 3 393 .8666
66666666667 .866666666666667 .890196078431373 81 1 362 861 336 313 0 316 364 394
 395 83 3 366 .866666666666667 .866666666666667 .890196078431373 81 1 394 862 33
6 309 0 312 362 396 397 83 3 395 .866666666666667 .866666666666667 .890196078431
373 81 1 312 945 274 309 394 0 308 316 398 81 1 396 863 336 305 0 308 394 399 40
0 83 3 397 .866666666666667 .866666666666667 .890196078431373 81 1 308 944 274 3
05 396 0 304 312 401 81 1 399 864 336 301 0 304 396 402 403 83 3 400 .8666666666
66667 .866666666666667 .890196078431373 81 1 304 943 274 301 399 0 300 308 404 8
1 1 402 865 336 297 0 300 399 346 405 83 3 403 .866666666666667 .866666666666667
 .890196078431373 81 1 300 942 274 297 402 0 291 304 406 81 1 346 866 336 295 0
 291 402 342 407 83 3 405 .866666666666667 .866666666666667 .890196078431373 81
 1 291 941 274 295 346 0 288 300 408 83 3 407 .866666666666667 .866666666666667
 .890196078431373 82 1 408 28770452 82 1 406 29360276 82 1 404 29950100 82 1 401
 50725012 82 1 398 51314836 82 1 363 51904660 82 3 360 739032 105 1 81 3 355 958
 349 102 350 345 350 345 409 0 0 82 3 356 739041 115 2 81 3 345 959 349 102 355
 0 355 0 410 0 0 82 3 409 739031 105 1 82 3 410 739041 115 1 79 12 354 GENERIC_P
ERM83 3 348 .866666666666667 .866666666666667 .890196078431373 82 1 341 -1092353
883 81 1 338 873 336 271 0 276 331 275 411 83 3 339 .866666666666667 .8666666666
66667 .890196078431373 81 1 276 935 274 271 338 0 273 278 412 81 1 275 874 336 1
8 0 273 338 0 413 83 3 411 .866666666666667 .866666666666667 .890196078431373 83
 3 413 .866666666666667 .866666666666667 .890196078431373 82 1 412 -1001389915 7
9 14 335 SWEntUnchanged15 323 213 0 228 201 414 17 228 0 323 228 228 0 415 226 0
 0 +15 414 163 0 216 201 199 17 216 0 414 216 216 0 416 207 0 0 +17 416 0 317 41
6 416 0 216 207 0 0 -15 317 187 0 416 313 417 15 417 188 0 219 313 0 17 219 0 41
7 219 219 0 418 217 0 0 +17 418 0 314 418 418 0 219 217 0 0 -15 314 192 0 418 30
9 419 15 419 193 0 222 309 0 17 222 0 419 222 222 0 420 220 0 0 +17 420 0 310 42
0 420 0 222 220 0 0 -15 310 197 0 420 305 421 15 421 198 0 225 305 0 17 225 0 42
1 225 225 0 422 223 0 0 +17 422 0 423 422 422 0 225 223 0 0 -15 423 152 0 422 27
2 35 17 415 0 306 415 415 0 228 226 0 0 -15 306 247 0 415 301 424 15 424 248 0 2
31 301 0 17 231 0 424 231 231 0 425 229 0 0 +17 425 0 302 425 425 0 231 229 0 0
 -15 302 252 0 425 297 426 15 426 253 0 234 297 0 17 234 0 426 234 234 0 427 232
 0 0 +17 427 0 298 427 427 0 234 232 0 0 -15 298 257 0 427 295 428 15 428 258 0
 237 295 0 17 237 0 428 237 237 0 429 235 0 0 +17 429 0 430 429 429 0 237 235 0
 0 -15 430 222 0 429 272 423 15 320 307 0 431 272 430 17 431 0 320 431 431 0 242
 241 0 0 -17 242 0 283 242 242 0 431 241 0 0 +15 283 333 0 242 16 0 17 88 0 289
 88 88 86 0 0 0 0 ?15 293 328 0 240 101 0 17 240 0 293 240 240 0 432 238 0 0 +17
 432 0 123 432 432 0 240 238 0 0 -15 123 332 0 432 122 0 82 1 292 -1052442461 82
 1 286 -1053032284 17 110 0 279 114 114 80 91 111 0 0 +17 114 0 279 110 110 89 1
13 153 0 0 +17 113 0 112 109 104 80 114 153 0 110 -82 1 282 -1026817884 82 1 277
 -999423835 17 126 0 35 73 49 44 263 124 0 256 +17 73 0 35 214 126 71 256 182 0
 252 +17 49 0 35 126 32 47 266 180 0 263 +17 32 0 35 49 33 11 28 127 0 266 +17 2
02 0 249 70 163 74 200 205 0 254 +17 82 0 99 91 94 80 109 115 0 113 +141 146 121
 433 433 138 141 433 148 146 146 138 141 144 125 434 435 130 141 434 148 436 144
 130 141 435 121 144 436 130 141 436 137 435 434 130 40 18 139 0 1 18 .000284334
5244692745 .392215596086313 ??.014 -.003218695387886205 .00505530587396955 .0152
2914998288875 -.004027913879031805 .00568886212432229 .0163280846882848 -.004348
39393499285 .00601233524652367 .0173340406067853 -.004387301775923155 .006055182
75113007 .018303326716159 -.004202539645374715 .00585890587778376 .0195543735301
9845 -.003582621368247205 .00531226876498039 .02056376166561195 -.00258062062122
9495 .00469430520956161 .0211774028951795 -.001381776049635432 .004264087261067
 .0213999796069059 133962238062254e-19 .004100015208393525 .02122706141291085 .0
01221454793056222 .004227821192260245 .02075765863592545 .00228910497265959 .004
56216969516839 .01993956110386025 .00327398541790764 .00509173966834194 .0186436
674086251 .004081465110695375 .00573952554870043 .0175776610103677 .004361915606
37077 .00602713047748871 .01642980955232855 .00436289844637532 .0060282098309933
4 .01548553454424395 .00413114928117123 .00578768405545377 .0142088260338419 .00
340137441200482 .00517914404805963 .014 .00321869538788632 .00505530587396957 41
 1 140 L?.014 -.003218695387886205 .00505530587396955 41 1 141 L?.014 .003218695
38788632 .00505530587396957 204 72 142 4 3.962143736398165 -.01494469412603044 5
.7061501026684 -.016 4.29818001789433 -.0143111378756777 5.53173766697848 -.0147
7085001711124 4.55908112022922 -.01398766475347632 5.45454077489839 -.0136719153
1171522 4.78838041693225 -.01394481724886992 5.44473110147945 -.0126659593932147
 5.01311174969655 -.01414109412221624 5.49042291686398 -.01169667328384104 5.331
78002685925 -.01468773123501962 5.63062333650927 -.01044562646980156 5.656448734
19484 -.0153056947904384 5.83048733910929 -.00943623833438808 5.96373996513358 -
.015735912738933 6.04679039520035 -.00882259710482053 .003044601023298175 -.0158
999847916065 .0022705483587616 -.00860002039309412 .2812985170085795 -.015772178
80773975 .2085343608976105 -.00877293858708915 .547144983185364 -.01543783030483
16 .398443124528943 -.00924234136407456 .839168092421407 -.01490826033165806 .58
8258122454184 -.01006043889613976 1.18795158652895 -.01426047445129956 .76394249
7157072 -.01135633259137492 1.439129631579154 -.0139728695225113 .83204170586399
8 -.01242233898963232 1.700750536030915 -.01397179016900666 .832289127411946 -.0
1357019044767148 1.922179393804565 -.01421231594454624 .775670298432559 -.014514
46545575604 2.25797371274315 -.01482085595194036 .614443792600332 -.015791173966
1581 2.32104157078142 -.01494469412603042 .577035204511203 -.016 19 17 100 0 1 0
 9 5 S0 74 4 CI16 index_map_offset0 0 1 dCCZ20 15 10 0 0 437 438 332 439 345 440
 441 13 275 2 0 0 0 0 0 0 0 0 0 0 81 2 437 124 442 1 0 438 0 0 0 443 81 2 438 12
8 444 1 437 439 0 0 0 445 81 2 439 143 446 1 438 440 0 0 0 447 81 1 440 783 448
 1 439 441 0 0 449 81 2 441 784 450 1 440 13 0 0 451 0 81 2 13 852 452 1 441 2 0
 0 0 0 80 2 452 453 454 9000 0 0 0 0 3 5 0 0 0 FFTFFFFFFFFFFF9 1 79 16 454 BODY_
RECIPE_200180 2 450 455 456 8004 0 0 0 0 3 5 0 0 0 FFTFFFFFFFFFFF2 3 83 1 451 27
e2 79 16 456 SDL/TYSA_DENSITY80 1 448 457 458 9000 1 1 1 1 1 1 1 1 0 FFTFFFFFFFF
FFF1 82 1 449 441967 79 10 458 BODY_MATCH80 2 446 459 460 9000 0 0 0 0 3 5 0 0 0
 FFTFFFFFFFFFFF9 1 82 1 447 1 79 24 460 BODY_IN_LIGHTWEIGHT_PERM80 2 444 461 462
 9000 0 0 0 0 3 5 0 0 0 FFTFFFFFFFFFFF9 1 82 1 445 118 79 30 462 LAST_BODY_MODIF
YING_FEATURE_ID80 2 442 463 464 9000 0 0 0 0 3 5 0 0 0 FFTFFFFFFFFFFT9 1 82 1 44
3 142 79 19 464 ENT_TIME_STAMP_200180 2 12 465 466 9000 0 0 0 0 3 5 0 0 0 FFTFFF
FFFFFFFF9 1 82 1 14 109 79 12 466 ATOM_ID_20011 0 
