**ABCDEFGHIJKLMNOPQRSTUVWXYZabcdefghijklmnopqrstuvwxyz**************************
**PARASOLID !"#$%&'()*+,-./:;<=>?@[\]^_`{|}~0123456789**************************
**PART1;
MC=AMD64;
MC_MODEL=Intel64 Family 6 Model 158 Stepping 10, GenuineIntel;
MC_ID=unknown;
OS=Windows_NT;
OS_RELEASE=unknown;
FRU=Parasolid Version 31.0, build 282,  2-25-2019;
APPL=SOLIDWORKS 2019-2019227;
SITE=;
USER=unknown;
FORMAT=text;
GUISE=transmit;
KEY=LRM0460 Ö§¼Ü×ù;
FILE=LRM0460 Ö§¼Ü×ù.x_t;
DATE=Fri Jun 11 13:34:15 2021;
**PART2;
SCH=SCH_3100282_31001;
USFLD_SIZE=0;
**PART3;
**END_OF_HEADER*****************************************************************
T51 : TRANSMIT FILE created by modeller version 310028223 SCH_3100282_31001_1300
6215 0 12 34 CCCCCCI4 mesh1006 0 I8 polyline1008 0 CCCCCCCDI5 owner1040 0 CCCCCC
I13 boundary_mesh1006 0 I17 boundary_polyline1008 0 CCCA16 index_map_offset0 0 1
 dA9 index_map82 0 A17 node_id_index_map82 0 A20 schema_embedding_map82 0 A5 chi
ld12 0 A14 lowest_node_id0 0 1 dA16 mesh_offset_data206 0 Z1 2091 2 3 0 0 0 0 0
 0 1e3 1e-8 0 4 0 1 0 1 1 5 6 7 8 0 0 9 10 11 0 0 0 0 0 0 0 81 255 2 2 2027 12 1
 13 0 0 0 0 14 70 11 CI9 list_type0 0 1 uI10 notransmit0 0 1 lCCCDCCDI12 finger_
index0 0 1 dI12 finger_block1012 0 CZ3 0 4 T1 0 0 11 20 1 15 15 13 255 5 48 0 1
 0 16 0 0 17 0 50 255 6 1775 0 18 19 0 0 +-.0375 .001000000000000062 0 -.7071067
81186555 -.70710678118654 0 0 0 -1 30 255 7 1778 0 20 21 0 0 +-.0375 .0010000000
00000062 0 .70710678118654 -.707106781186555 0 29 255 8 1590 0 11 22 0 -.0375 .0
01000000000000062 0 19 8 CCCCCCCA5 owner12 0 Z9 52 0 1 17 0 23 V0 16 255 10 1605
 0 ?24 0 25 26 0 0 1 18 255 11 1588 0 27 0 28 8 ?1 17 255 27 0 29 30 31 11 32 33
 0 34 +18 28 1585 0 24 11 35 22 ?1 17 24 0 36 37 38 28 39 10 0 31 +18 35 1567 0
 40 28 41 42 ?1 29 22 1587 0 28 42 8 -.0375 .001000000000000062 -.028 29 42 1569
 0 35 43 22 .0365 0 -.028 29 43 1565 0 41 44 42 -.0365 0 -.028 18 41 1563 0 38 3
5 45 43 ?1 29 44 1561 0 45 46 43 -.0365 0 0 18 45 1559 0 47 41 48 44 ?1 29 46 15
58 0 48 49 44 .0365 0 0 18 48 1556 0 50 45 51 46 ?1 29 49 1550 0 51 52 46 .0375
 .001000000000000062 0 18 51 1548 0 53 48 54 49 ?1 29 52 1547 0 54 55 49 .0375 .
001000000000000062 -.028 18 54 1545 0 56 51 57 52 ?1 29 55 1533 0 57 58 52 -.028
86065573770495 .0540440247775293 -.01 18 57 1531 0 59 54 60 55 ?1 29 58 1524 0 6
0 61 55 -.02886065573770495 .054 -.00986471238251173 18 60 1522 0 62 57 63 58 ?1
 29 61 1516 0 63 64 58 -.02886065573770495 .054 .00986471238251173 18 63 1514 0
 65 60 66 61 ?1 29 64 1502 0 66 67 61 -.02987055406248765 .055 -.01 18 66 1500 0
 68 63 69 64 ?1 29 67 1499 0 69 70 64 -.02987704918032785 .055 .0099805777526288
5 18 69 1497 0 71 66 72 67 ?1 29 70 147 0 72 73 67 -.02886065573770495 .005 .009
86471238251174 18 72 146 0 74 69 75 70 ?1 29 73 341 0 75 76 70 -.036142080737002
4 .055 .01 18 75 241 0 77 72 78 73 ?1 29 76 342 0 78 79 73 -.0361420807370024 .0
55 -.01 18 78 250 0 80 75 81 76 ?1 29 79 344 0 81 82 76 -.0361420807370024 .005
 .01 18 81 248 0 83 78 84 79 ?1 29 82 349 0 84 85 79 -.0305 .005 .01 18 84 256 0
 86 81 87 82 ?1 29 85 353 0 87 88 82 -.0305 .055 .01 18 87 251 0 89 84 90 85 ?1
 29 88 689 0 90 91 85 -.0361420807370024 .02 -.01 18 90 547 0 92 87 93 88 ?1 29
 91 695 0 94 95 88 -.0675 0 -.028 18 94 553 0 96 97 98 91 ?1 29 95 696 0 98 99 9
1 -.0675 0 -.038 18 98 552 0 100 94 101 95 ?1 29 99 697 0 101 102 95 .0675 0 -.0
38 18 101 568 0 103 98 104 99 ?1 29 102 698 0 104 105 99 .0675 0 -.028 18 104 55
1 0 106 101 107 102 ?1 29 105 704 0 93 108 102 -.0375 .02 -.028 18 93 563 0 109
 90 110 105 ?1 29 108 705 0 110 111 105 -.0675 .02 -.028 18 110 562 0 112 93 113
 108 ?1 29 111 706 0 113 114 108 -.0675 .02 -.038 18 113 561 0 115 110 116 111 ?
1 29 114 707 0 116 117 111 .0675 .02 -.038 18 116 560 0 118 113 119 114 ?1 29 11
7 708 0 119 120 114 .0675 .02 -.028 18 119 559 0 121 116 122 117 ?1 29 120 709 0
 122 123 117 .0375 .02 -.028 18 122 558 0 124 119 97 120 ?1 29 123 710 0 97 125
 120 .0375 .02 0 18 97 557 0 126 122 94 123 ?1 29 125 957 0 107 127 123 -.028860
65573770495 .005 -.00986471238251172 18 107 855 0 128 104 129 125 ?1 29 127 959
 0 129 130 125 -.0375 .005 -1734723475976805e-33 18 129 854 0 131 107 132 127 ?1
 29 130 964 0 132 133 127 -.0375 .02 -.01 18 132 859 0 134 129 135 130 ?1 29 133
 967 0 135 136 130 -.02886065573770495 .005 -.01 18 135 869 0 137 132 138 133 ?1
 29 136 968 0 138 139 133 -.0375 .005 -.01 18 138 868 0 140 135 141 136 ?1 29 13
9 1210 0 141 142 136 .02944486372867095 .03924892422621555 -.017 18 141 1188 0 1
43 138 144 139 ?1 29 142 1259 0 144 145 139 -.02944486372867095 .039248924226215
55 -.017 18 144 1237 0 146 141 147 142 ?1 29 145 1298 0 147 148 142 233785032366
6445e-31 .03924892422621555 .034 18 147 1276 0 149 144 150 145 ?1 29 148 1367 0
 150 151 145 -2716614405440165e-33 .01109142002139546 .034 18 150 1345 0 152 147
 153 148 ?1 29 151 1425 0 153 154 148 .02944486372867085 .01109142002139546 -.01
7 18 153 1403 0 155 150 156 151 ?1 29 154 1471 0 156 0 151 -.0294448637286711 .0
1109142002139546 -.01699999999999975 18 156 1449 0 157 153 0 154 ?1 17 157 0 158
 157 157 156 0 0 0 0 ?15 255 158 1457 0 157 159 160 14 255 159 1454 161 ?162 163
 158 5 164 -0 0 162 163 23 15 160 1458 0 165 159 0 17 165 0 160 165 165 0 166 16
7 0 0 +17 166 0 168 166 166 0 165 167 0 0 -16 167 1448 0 ?165 169 170 171 0 0 1
 16 169 1401 0 ?172 173 167 174 0 0 1 16 170 1447 0 ?175 167 20 176 0 0 1 31 255
 171 1469 0 167 176 174 0 +-.0294448637286711 .0101 -.01699999999999975 0 -1 0 0
 0 -1 .00165 31 176 1470 0 170 0 171 0 +-.0294448637286711 -1353234713057822e-33
 -.01699999999999975 0 -1 0 0 0 -1 .00165 31 174 1424 0 169 171 177 0 +.02944486
372867085 -1353234713057822e-33 -.017 0 -1 0 0 0 -1 .00165 31 177 1423 0 173 174
 178 0 +.02944486372867085 .0101 -.017 0 -1 0 0 0 -1 .00165 16 173 1402 0 ?179 1
80 169 177 0 0 1 31 178 1366 0 180 177 181 0 +0 -1353234713057822e-33 .034 0 -1
 0 0 0 -1 .00165 16 180 1343 0 ?182 183 173 178 0 0 1 31 181 1365 0 183 178 184
 0 +0 .0101 .034 0 -1 0 0 0 -1 .00165 16 183 1344 0 ?185 186 180 181 0 0 1 31 18
4 1297 0 186 181 187 0 +2376571162088225e-31 .055 .034 0 1 0 0 0 1 .00125 16 186
 1274 0 ?188 189 183 184 0 0 1 31 187 1296 0 189 184 190 0 +2376571162088225e-31
 .04 .034 0 1 0 0 0 1 .00125 16 189 1275 0 ?191 192 186 187 0 0 1 31 190 1258 0
 192 187 193 0 +-.02944486372867095 .055 -.017 0 1 0 0 0 1 .00125 16 192 1235 0
 ?194 195 189 190 0 0 1 31 193 1257 0 195 190 196 0 +-.02944486372867095 .04 -.0
17 0 1 0 0 0 1 .00125 16 195 1236 0 ?197 198 192 193 0 0 1 31 196 1209 0 198 193
 199 0 +.02944486372867095 .055 -.017 0 1 0 0 0 1 .00125 16 198 1186 0 ?200 201
 195 196 0 0 1 31 199 1208 0 201 196 202 0 +.02944486372867095 .04 -.017 0 1 0 0
 0 1 .00125 16 201 1187 0 ?203 204 198 199 0 0 1 31 202 1155 0 204 199 205 0 +.0
55 .01 -.028 0 0 1 1 0 0 .005 16 204 1112 0 ?206 207 201 202 0 0 1 31 205 1154 0
 207 202 208 0 +.055 .01 -.0337 0 0 1 1 0 0 .005 16 207 1115 0 ?209 210 204 205
 0 0 1 31 208 1153 0 210 205 211 0 +.055 .01 -.0337 0 0 1 1 0 0 .00275 16 210 11
14 0 ?212 213 207 208 0 0 1 31 211 1151 0 213 208 214 0 +.055 .01 -.038 10279842
8206033e-30 0 1 1 0 -102798428206033e-30 .00275 16 213 1113 0 ?215 216 210 211 0
 0 1 31 214 1073 0 216 211 217 0 +-.055 .01 -.028 0 0 1 1 0 0 .005 16 216 1030 0
 ?218 219 213 214 0 0 1 31 217 1072 0 219 214 220 0 +-.055 .01 -.0337 0 0 1 1 0
 0 .005 16 219 1033 0 ?221 222 216 217 0 0 1 31 220 1071 0 222 217 223 0 +-.055
 .01 -.0337 0 0 1 1 0 0 .00275 16 222 1032 0 ?224 225 219 220 0 0 1 31 223 1069
 0 225 220 226 0 +-.055 .01 -.038 102798428206033e-30 0 1 1 0 -102798428206033e-
30 .00275 16 225 1031 0 ?227 228 222 223 0 0 1 30 226 952 0 229 223 230 0 +-.037
5 .005 -.01 0 0 -1 16 229 848 0 ?231 232 233 226 0 0 1 30 230 950 0 232 226 234
 0 +-.02886065573770495 .005 .00986471238251174 0 0 1 16 232 846 0 ?235 236 229
 230 0 0 1 30 234 943 0 233 230 237 0 +-.0375 -.01678619446535925 -.01 0 1 0 16
 233 830 0 ?238 229 228 234 0 0 1 30 237 942 0 228 234 239 0 +-.0288606557377049
5 -.01678619446535925 -.01 0 1 0 16 228 825 0 ?240 233 225 237 0 0 1 30 239 941
 0 236 237 241 0 +-.02886065573770495 .005 -.01 1 0 2007934194204655e-31 16 236
 849 0 ?137 242 232 239 0 0 1 30 241 682 0 243 239 244 0 +.0375 .02 0 0 0 -1 16
 243 513 0 ?124 245 246 241 0 0 1 30 244 681 0 245 241 247 0 +.0675 .02 -.028 1
 0 0 16 245 516 0 ?121 248 243 244 0 0 1 30 247 680 0 248 244 249 0 +.0675 .02 -
.038 0 0 -1 16 248 519 0 ?118 250 245 247 0 0 1 30 249 679 0 250 247 251 0 +0 .0
2 -.038 -1 0 -102798428206033e-30 16 250 522 0 ?115 252 248 249 0 0 1 30 251 678
 0 252 249 253 0 +-.0675 .02 -.038 0 0 1 16 252 527 0 ?112 254 250 251 0 0 1 30
 253 677 0 254 251 255 0 +-.0675 .02 -.028 1 0 0 16 254 530 0 ?109 256 252 253 0
 0 1 30 255 676 0 256 253 257 0 +-.0375 .02 0 0 0 1 16 256 533 0 ?258 259 254 25
5 0 0 1 30 257 671 0 242 255 260 0 +.0675 0 -.028 1 0 0 16 242 485 0 ?106 261 23
6 257 0 0 1 30 260 670 0 261 257 262 0 +.0675 0 -.038 0 0 -1 16 261 489 0 ?263 2
64 242 260 0 0 1 30 262 669 0 264 260 265 0 +0 0 -.038 -1 0 102798428206033e-30
 16 264 493 0 ?100 266 261 262 0 0 1 30 265 668 0 266 262 267 0 +-.0675 0 -.038
 0 0 1 16 266 499 0 ?96 246 264 265 0 0 1 30 267 667 0 246 265 268 0 +-.0675 0 -
.028 1 0 0 16 246 503 0 ?38 243 266 267 0 0 1 30 268 661 0 259 267 269 0 +-.0375
 .02 0 0 -1 0 16 259 456 0 ?34 270 256 268 0 0 1 30 269 660 0 270 268 271 0 +-.0
375 .02 -.028 0 -1 0 16 270 510 0 ?31 272 259 269 0 0 1 30 271 659 0 272 269 273
 0 +-.0675 .02 -.028 0 -1 0 16 272 506 0 ?274 275 270 271 0 0 1 30 273 658 0 275
 271 276 0 +-.0675 .02 -.038 0 -1 0 16 275 502 0 ?277 278 272 273 0 0 1 30 276 6
57 0 278 273 279 0 +.0675 .02 -.038 0 -1 0 16 278 498 0 ?280 281 275 276 0 0 1 3
0 279 656 0 281 276 282 0 +.0675 .02 -.028 0 -1 0 16 281 492 0 ?283 284 278 279
 0 0 1 30 282 655 0 284 279 285 0 +.0375 .02 -.028 0 -1 0 16 284 488 0 ?286 287
 281 282 0 0 1 30 285 654 0 287 282 288 0 +.0375 .02 0 0 -1 0 16 287 484 0 ?289
 290 284 285 0 0 1 31 288 652 0 290 285 291 0 -0 .02 0 0 1 0 0 0 1 .0375 16 290
 512 0 ?126 292 287 288 0 0 1 30 291 339 0 293 288 294 0 +-.0305 .005 .01 -1 0 -
495635278850517e-30 16 293 235 0 ?295 296 297 291 0 0 1 31 294 338 0 296 291 298
 0 --.0305 .005 0 0 1 0 0 0 1 .01 16 296 240 0 ?86 299 293 294 0 0 1 31 298 337
 0 292 294 300 0 +-.0305 .055 0 0 1 0 0 0 1 .01 16 292 226 0 ?301 302 290 298 0
 0 1 30 300 336 0 302 298 303 0 +-.0305 .055 -.01 -1 0 495635278850517e-30 16 30
2 1501 0 ?80 304 292 300 0 0 1 30 303 334 0 304 300 305 0 +-.0305 .055 .01 1 0 4
95635278850517e-30 16 304 223 0 ?89 297 302 303 0 0 1 30 305 333 0 297 303 306 0
 +-.0305 -.0286005952328229 .01 0 1 0 16 297 221 0 ?307 293 304 305 0 0 1 30 306
 328 0 299 305 308 0 --.02886065573770495 .03 .00986471238251173 0 1 0 16 299 15
15 0 ?74 309 296 306 0 0 1 30 308 327 0 309 306 310 0 +-.02886065573770495 .03 -
.00986471238251173 0 1 0 16 309 395 0 ?311 312 299 308 0 0 1 31 310 325 0 312 30
8 313 0 -0 .005 0 0 1 0 0 0 1 .0375 16 312 236 0 ?131 314 309 310 0 0 1 30 313 3
22 0 314 310 315 0 +-.0361420807370024 0 -.01 0 -1 0 16 314 198 0 ?316 317 312 3
13 0 0 1 30 315 321 0 317 313 318 0 --.0361420807370024 0 .01 0 -1 0 16 317 197
 0 ?77 319 314 315 0 0 1 31 318 91 0 319 315 320 0 +0 0 0 0 -1 0 0 0 -1 .01925 1
6 319 56 0 ?321 322 317 318 0 0 1 31 320 92 0 322 318 323 0 +0 .005 0 0 -1 0 0 0
 -1 .01925 16 322 61 0 ?324 325 319 320 0 0 1 31 323 93 0 325 320 326 0 +0 .005
 0 0 -1 0 0 0 -1 .0305 16 325 773 0 ?327 328 322 323 0 0 1 31 326 95 0 328 323 3
29 0 +0 .055 0 0 -1 0 0 0 -1 .0375 16 328 169 0 ?330 331 325 326 0 0 1 30 329 76
0 0 331 326 332 0 +2007934194204655e-33 .02 -.01 -1 0 -2007934194204655e-31 16 3
31 758 0 ?134 333 328 329 0 0 1 31 332 1505 0 333 329 334 0 -0 .055 0 0 1 0 0 0
 1 .0315 16 333 1503 0 ?335 336 331 332 0 0 1 38 12 CCCCCCCCCCCA17 intersection_
data204 0 Z334 1519 0 336 332 337 0 +338 339 340 341 342 343 16 336 1517 0 ?65 3
44 333 334 0 0 1 31 337 1527 0 344 334 345 0 +0 .054 0 0 1 0 0 0 1 .0305 52 255
 338 1739 0 346 347 348 349 -0 .055 0 0 1 0 .0315 .70710678118654 .7071067811865
55 0 0 1 51 255 339 315 0 350 351 352 353 +-.0305 -.0286005952328229 0 0 1 0 .01
 0 0 1 40 255 2 340 0 1 2 531171204410356e-19 .0739296415187353 ??-.029877049180
32785 .055 .00998057775262885 -.0288606557377049 .054 .00986471238251173 41 3 CI
8 term_use0 0 1 cCZ1 341 L?-.02987704918032785 .055 .00998057775262885 41 1 342
 L?-.0288606557377049 .054 .00986471238251173 204 2 17 INTERSECTION_DATA17 Inter
section data7 uv_type0 0 1 u6 values0 1 1 fT8 343 4 5.03478889677437 0 .06233544
36752926 .0836005952328229 5.04174443390981 -.000999999999999987 .16467772676255
9 .0826005952328229 14 350 289 354 ?355 356 357 5 339 -0 0 355 356 23 50 351 316
 0 358 359 339 360 +-.0305 -.0286005952328229 -.01 -495635278850517e-30 0 -1 -1
 0 495635278850517e-30 50 352 84 0 356 339 361 0 +.01925 0 0 0 -1 0 0 0 -1 141 2
55 353 334 353 353 339 14 356 59 362 ?350 363 364 5 352 +0 0 350 363 23 51 361 8
5 0 363 352 365 0 -0 0 0 0 -1 0 .01925 0 0 -1 14 363 64 366 ?356 367 368 5 361 +
0 0 356 367 23 50 365 86 0 369 361 370 0 +.0305 .005 0 0 1 0 0 0 1 14 369 431 37
1 ?372 373 374 5 365 +0 0 372 373 23 51 370 87 0 367 365 375 0 -0 0 0 0 -1 0 .03
05 0 0 -1 14 367 74 376 ?363 372 377 5 370 +0 0 363 372 23 50 375 88 0 372 370 3
47 0 +.0375 .055 0 0 1 0 0 0 1 14 372 79 378 ?367 369 379 5 375 +0 0 367 369 23
 51 347 89 0 373 375 338 0 +0 0 0 0 -1 0 .0375 0 0 -1 14 373 451 380 ?369 381 38
2 5 347 +0 0 369 381 23 81 1 380 2047 383 373 384 0 378 385 386 14 381 1024 385
 ?373 16 36 5 387 -0 0 373 16 23 15 382 81 0 34 373 0 13 23 51 0 0 0 0 0 0 9 16
 14 16 1106 388 ?381 0 389 5 390 -0 0 381 0 23 81 1 388 2049 383 16 391 0 385 39
2 393 15 389 598 0 106 16 394 50 390 638 0 16 395 396 0 +.0675 .02 -.028 0 0 -1
 -1 0 0 50 395 639 0 397 398 390 0 +.0675 .02 -.038 -1 0 0 0 0 1 50 396 637 0 39
9 390 359 0 +.0375 .02 0 -1 0 0 0 0 1 14 399 591 392 ?397 358 400 5 396 -0 0 397
 358 23 50 359 318 0 355 396 351 0 +-.0305 -.0286005952328229 .01 -4956352788505
17e-30 0 1 1 0 495635278850517e-30 14 355 293 401 ?358 350 402 5 359 -0 0 358 35
0 23 81 1 401 2051 383 355 403 0 392 404 405 14 358 301 404 ?399 355 406 5 351 -
0 0 399 355 23 15 402 296 0 77 355 0 17 77 0 402 89 295 75 407 317 0 408 +17 89
 0 402 409 77 87 408 304 0 307 +17 295 0 402 77 409 81 410 293 0 407 +17 407 0 3
82 131 330 81 77 317 0 0 -17 408 0 411 412 413 75 89 304 0 330 -15 411 785 0 414
 372 0 17 412 0 411 414 408 78 330 328 0 0 -17 413 0 411 408 335 87 301 292 0 0
 -17 330 0 382 407 415 75 412 328 0 0 +17 415 0 382 330 416 78 316 314 0 412 -17
 416 0 382 415 417 90 126 290 0 316 -17 316 0 406 134 80 90 415 314 0 0 +15 406
 980 0 240 358 0 17 134 0 406 140 316 132 92 331 0 238 +17 80 0 406 316 68 78 41
4 302 0 415 +17 68 0 406 80 240 66 418 419 0 414 +17 414 0 411 335 412 66 80 302
 0 420 -17 335 0 411 413 414 69 420 333 0 301 +17 420 0 421 418 71 66 335 333 0
 0 -15 421 1726 0 422 346 0 17 418 0 421 422 420 57 68 419 0 0 -17 71 0 421 420
 423 69 65 336 0 335 -17 423 0 421 71 422 63 62 344 0 0 -17 65 0 357 74 301 63 7
1 336 0 424 +15 357 292 0 301 350 0 17 74 0 357 86 65 72 424 299 0 327 +17 301 0
 357 65 307 69 413 292 0 0 +17 424 0 377 62 327 63 74 299 0 423 -15 377 776 0 42
4 367 0 17 62 0 377 128 424 60 423 344 0 311 +17 327 0 377 424 128 72 425 325 0
 426 +17 128 0 377 327 62 107 311 309 0 235 -17 425 0 374 427 426 107 327 325 0
 0 -17 426 0 374 425 410 72 86 296 0 0 -15 374 793 0 426 369 428 17 410 0 374 42
6 83 84 295 293 0 409 -17 86 0 357 307 74 84 426 296 0 410 +17 307 0 357 301 86
 87 409 297 0 413 +17 409 0 402 295 89 84 307 297 0 0 -17 83 0 374 410 429 81 13
1 312 0 295 -17 429 0 374 83 430 129 231 229 0 30 -17 131 0 382 34 407 129 83 31
2 0 429 +17 34 0 382 53 131 11 30 259 0 431 +17 53 0 382 417 34 51 432 433 0 289
 +17 30 0 29 231 27 129 34 259 0 0 -17 431 0 434 32 435 11 436 20 0 432 -15 434
 1750 0 39 18 0 17 32 0 434 39 431 28 27 33 0 0 -17 435 0 434 431 39 45 437 438
 0 436 -17 436 0 439 440 432 45 431 20 0 0 +16 20 1761 0 ?436 170 441 7 0 0 1 17
 432 0 439 436 442 11 53 433 0 0 -15 439 1752 0 436 443 0 17 442 0 439 432 440 5
1 444 441 0 445 -16 433 1596 0 ?53 25 33 446 0 0 1 16 25 1601 0 ?447 10 433 448
 0 0 1 16 33 1591 0 ?27 433 449 450 0 0 1 31 446 1598 0 433 450 448 0 -0 .001000
000000000062 0 0 -1 0 0 0 -1 .0375 30 450 1593 0 33 451 446 0 +-.0375 .001000000
000000062 0 0 0 1 30 448 1701 0 25 446 26 0 +.062 .0255 -.028 -.707106781186538
 -.707106781186558 0 30 26 1702 0 10 448 21 0 +-.062 .0255 -.028 -.7071067811865
4 .707106781186555 0 30 21 1779 0 441 26 7 0 +.0375 .001000000000000062 0 -.7071
06781186538 -.707106781186558 0 16 441 1764 0 ?444 20 0 21 0 0 1 17 444 0 452 45
3 445 48 442 441 0 0 +15 452 1754 0 444 454 0 17 453 0 452 56 444 35 50 449 0 0
 -17 445 0 452 444 56 51 455 456 0 0 -17 56 0 452 445 453 54 447 25 0 455 -17 45
5 0 400 457 289 54 445 456 0 286 +16 456 1551 0 ?455 458 419 459 0 0 1 16 458 15
60 0 ?47 438 456 460 0 0 1 16 419 1539 0 ?68 456 461 462 0 0 1 30 459 1553 0 456
 462 460 0 +.0375 .001000000000000062 -.028 0 0 -1 38 462 1541 0 419 345 459 0 +
338 351 463 464 465 466 31 460 1562 0 458 459 467 0 +0 0 0 0 -1 0 0 0 -1 .0365 3
0 467 1566 0 438 460 451 0 +-.0365 0 -.028 0 0 -1 16 438 1564 0 ?437 449 458 467
 0 0 1 30 451 1570 0 449 467 450 0 +.0365 0 0 0 0 1 16 449 1568 0 ?50 33 438 451
 0 0 1 17 50 0 468 47 40 48 453 449 0 440 +15 468 715 0 437 356 469 17 47 0 468
 437 50 45 440 458 0 435 +17 40 0 468 50 470 35 106 242 0 447 -17 440 0 439 442
 436 48 47 458 0 444 -17 470 0 468 40 103 104 263 261 0 0 -17 106 0 389 471 447
 104 40 242 0 283 +17 447 0 389 106 286 35 56 25 0 453 +17 286 0 389 447 472 54
 457 284 0 0 +17 472 0 389 286 471 122 121 245 0 0 -17 457 0 400 473 455 122 286
 284 0 472 -15 400 594 0 289 399 0 17 473 0 400 289 457 97 124 243 0 417 -17 289
 0 400 455 473 51 417 287 0 442 +17 124 0 474 121 126 122 473 243 0 457 +17 417
 0 382 416 53 97 289 287 0 0 -15 474 759 0 92 475 0 17 121 0 474 118 124 119 472
 245 0 471 +17 126 0 474 124 92 97 416 290 0 473 +17 92 0 474 126 258 90 134 331
 0 416 -17 258 0 474 92 109 132 476 256 0 0 +17 109 0 474 258 112 93 477 254 0 3
7 +17 476 0 29 31 238 93 258 256 0 0 -15 29 619 0 31 478 0 17 31 0 29 27 476 28
 37 270 0 32 +17 238 0 29 476 231 132 140 233 0 258 +17 231 0 29 238 30 138 429
 229 0 0 +17 140 0 406 137 134 138 238 233 0 430 -17 137 0 406 240 140 135 430 2
36 0 427 +17 430 0 374 429 427 138 137 236 0 231 -17 427 0 374 430 425 135 235 2
32 0 479 -17 235 0 480 311 479 107 427 232 0 425 +17 479 0 480 235 59 135 240 22
8 0 0 -15 480 902 0 311 481 0 17 59 0 480 479 311 57 422 461 0 240 +17 240 0 406
 68 137 57 479 228 0 418 +17 311 0 480 59 235 60 128 309 0 422 +17 422 0 421 423
 418 60 59 461 0 0 -16 461 1534 0 ?59 419 344 345 0 0 1 16 344 1525 0 ?62 461 33
6 337 0 0 1 38 345 1536 0 461 337 462 0 +338 482 483 484 485 486 50 482 925 0 48
1 487 488 489 +-.02886065573770495 -.01678619446535925 .00986471238251174 1 0 0
 0 0 -1 40 2 483 0 1 2 255252592004518e-21 .003583597212963605 ??-.0288606557377
0495 .054 -.00986471238251173 -.02886065573770495 .0540440247775293 -.01 41 1 48
4 L?-.02886065573770495 .054 -.00986471238251173 41 1 485 L?-.02886065573770495
 .0540440247775293 -.01 204 8 486 4 4.38303352685957 -.000999999999999987 .01972
942476502345 .0707861944653593 4.378842316954625 -.000955975222470748 .019864712
38251175 .0708302192428885 14 481 899 490 ?491 475 480 5 482 -0 0 491 475 23 51
 487 1066 0 491 492 482 0 +-.055 .01 -.028 0 0 1 .00275 1 0 0 50 488 647 0 475 4
82 493 0 +0 .02 0 0 1 0 0 0 1 141 489 345 489 489 482 14 475 628 494 ?481 478 47
4 5 488 +0 0 481 478 23 50 493 643 0 478 488 387 0 +-.0375 .02 0 1 0 0 0 0 -1 14
 478 616 495 ?475 496 29 5 493 -0 0 475 496 23 50 387 642 0 381 493 497 0 +-.067
5 .02 -.028 0 0 -1 -1 0 0 50 497 641 0 496 387 398 0 +-.0675 .02 -.038 1 0 0 0 0
 -1 14 496 608 498 ?478 499 500 5 497 -0 0 478 499 23 50 398 640 0 499 497 395 0
 +0 .02 -.038 102798428206033e-30 0 1 1 0 -102798428206033e-30 14 499 603 501 ?4
96 397 502 5 398 -0 0 496 397 23 81 1 501 2057 383 499 503 0 498 504 505 14 397
 599 504 ?499 399 506 5 395 -0 0 499 399 23 15 502 1093 0 215 499 507 17 215 0 5
02 215 215 0 508 213 0 0 +15 507 1011 0 227 499 509 17 227 0 507 227 227 0 510 2
25 0 0 +15 509 607 0 100 499 0 17 100 0 509 511 280 98 103 264 0 277 +17 511 0 5
09 512 100 113 277 275 0 513 -17 280 0 509 100 512 101 514 278 0 0 +17 103 0 468
 470 515 101 100 264 0 263 -17 277 0 500 96 513 98 511 275 0 515 +15 500 611 0 9
6 496 0 17 96 0 500 516 277 94 515 266 0 274 +17 513 0 500 277 516 113 112 252 0
 0 -17 515 0 468 103 517 98 96 266 0 0 -17 517 0 468 515 437 94 38 246 0 0 -17 4
37 0 468 517 47 41 435 438 0 39 +17 38 0 36 24 274 41 517 246 0 437 +15 36 615 0
 38 381 518 17 274 0 36 38 477 94 516 272 0 517 +17 477 0 36 274 37 110 109 254
 0 0 -17 516 0 500 513 96 110 274 272 0 477 -17 37 0 36 477 24 93 31 270 0 476 -
15 518 1023 0 519 381 0 17 519 0 518 519 519 0 218 216 0 0 -17 218 0 520 218 218
 0 519 216 0 0 +15 520 1061 0 218 521 0 14 521 1057 522 ?523 524 525 5 526 -0 0
 523 524 23 81 1 522 2059 383 521 527 0 504 528 529 14 523 1129 528 ?530 521 531
 5 532 -0 0 530 521 23 14 524 1052 533 ?521 491 534 5 492 -0 0 521 491 23 15 525
 1060 0 535 521 520 51 526 1068 0 521 532 492 0 +-.055 .01 -.028 0 0 1 .005 1 0
 0 51 532 1148 0 523 536 526 0 +.055 .01 -.028 0 0 1 .00275 1 0 0 50 492 1067 0
 524 526 487 0 +-.05225 .01 -.0337 0 0 -1 -1 0 0 50 536 1149 0 530 537 532 0 +.0
5775 .01 -.0337 0 0 -1 -1 0 0 14 530 1134 538 ?539 523 540 5 536 -0 0 539 523 23
 51 537 1150 0 539 541 536 0 +.055 .01 -.028 0 0 1 .005 1 0 0 14 539 1139 542 ?5
43 530 544 5 537 -0 0 543 530 23 52 541 1206 0 543 545 537 0 +.02944486372867095
 .04 -.017 0 1 0 .00125 .857167300702111 .515038074910056 0 0 1 14 543 1193 546
 ?547 539 548 5 541 -0 0 547 539 23 51 545 1207 0 547 549 541 0 +.02944486372867
095 .055 -.017 0 1 0 .00125 0 0 1 14 547 1198 550 ?551 543 552 5 545 -0 0 551 54
3 23 52 549 1255 0 551 553 545 0 +-.02944486372867095 .04 -.017 0 1 0 .00125 .85
7167300702111 .515038074910056 0 0 1 14 551 1242 554 ?555 547 556 5 549 -0 0 555
 547 23 51 553 1256 0 555 557 549 0 +-.02944486372867095 .055 -.017 0 1 0 .00125
 0 0 1 14 555 1247 558 ?559 551 560 5 553 -0 0 559 551 23 52 557 1294 0 559 561
 553 0 +2376571162088225e-31 .04 .034 0 1 0 .00125 .857167300702111 .51503807491
0056 0 0 1 14 559 1281 562 ?563 555 564 5 557 -0 0 563 555 23 51 561 1295 0 563
 565 557 0 +2376571162088225e-31 .055 .034 0 1 0 .00125 0 0 1 14 563 1286 566 ?5
67 559 568 5 561 -0 0 567 559 23 52 565 1363 0 567 569 561 0 +0 .0101 .034 0 -1
 0 .00165 .857167300702111 .515038074910056 0 0 -1 14 567 1350 570 ?571 563 572
 5 565 -0 0 571 563 23 51 569 1364 0 571 573 565 0 +0 0 .034 0 -1 0 .00165 0 0 -
1 14 571 1355 574 ?575 567 576 5 569 -0 0 575 567 23 52 573 1421 0 575 577 569 0
 +.02944486372867085 .0101 -.017 0 -1 0 .00165 .857167300702111 .515038074910056
 0 0 -1 14 575 1408 578 ?163 571 579 5 573 -0 0 163 571 23 51 577 1422 0 163 164
 573 0 +.02944486372867085 0 -.017 0 -1 0 .00165 0 0 -1 14 163 1413 580 ?159 575
 581 5 577 -0 0 159 575 23 52 164 1467 0 159 582 577 0 +-.0294448637286711 .0101
 -.01699999999999975 0 -1 0 .00165 .857167300702111 .515038074910056 0 0 -1 51 5
82 1468 0 162 0 164 0 +-.0294448637286711 0 -.01699999999999975 0 -1 0 .00165 0
 0 -1 14 162 1459 583 ?346 159 168 5 582 -0 0 346 159 23 81 3 583 2086 584 162 5
85 0 585 0 586 0 0 14 346 1725 587 ?18 162 421 5 338 +0 0 18 162 23 15 168 1462
 0 166 162 588 15 588 1463 0 175 162 0 17 175 0 588 175 175 0 589 170 0 0 +17 58
9 0 364 589 589 0 175 170 0 0 -15 364 1438 0 589 356 590 15 590 1391 0 591 356 5
92 17 591 0 590 591 591 0 172 169 0 0 -15 592 1335 0 593 356 468 17 593 0 592 59
3 593 0 182 180 0 0 -17 182 0 594 182 182 0 593 180 0 0 +15 594 1359 0 182 571 0
 17 172 0 595 172 172 0 591 169 0 0 +15 595 1417 0 172 163 0 81 1 587 2087 383 3
46 596 0 597 598 599 14 18 1749 598 ?443 346 434 5 6 +0 0 443 346 23 81 1 598 20
88 383 18 600 0 587 601 602 14 443 1751 601 ?454 18 439 5 19 +0 0 454 18 23 81 1
 601 2089 383 443 603 0 598 604 605 14 454 1753 604 ?0 443 452 5 348 +0 0 0 443
 23 52 19 1776 0 443 348 6 0 +0 0 0 0 1 0 .0365 .707106781186538 .70710678118655
8 0 0 1 50 348 1777 0 454 338 19 0 +.0375 .001000000000000062 0 .707106781186558
 -.707106781186538 0 0 0 1 81 1 604 2090 383 454 606 0 601 607 608 80 255 1 383
 609 610 9000 1 1 1 1 1 1 1 1 0 FFFFTFTFFFFFFF1 81 1 606 1915 611 454 0 604 603
 0 612 81 1 607 2091 383 491 613 0 604 0 614 82 255 1 608 -2127953501 14 491 104
7 607 ?524 481 615 5 487 -0 0 524 481 23 81 1 613 1894 611 491 0 607 616 617 618
 82 1 614 1993736603 80 1 611 0 619 8001 0 0 0 0 3 5 0 0 0 FFFFTFTFFFFFFF2 81 1
 616 1893 611 481 0 490 620 613 621 81 1 617 1895 611 524 0 533 613 527 622 83 2
55 3 618 1 1 1 81 1 533 2061 383 524 617 0 528 538 623 81 1 527 1896 611 521 0 5
22 617 624 625 83 3 622 1 1 1 81 1 624 1897 611 523 0 528 527 626 627 83 3 625 1
 1 1 81 1 528 2060 383 523 624 0 522 533 628 81 1 626 1898 611 530 0 538 624 629
 630 83 3 627 1 1 1 81 1 538 2062 383 530 626 0 533 542 631 81 1 629 1899 611 53
9 0 542 626 632 633 83 3 630 1 1 1 81 1 542 2063 383 539 629 0 538 546 634 81 1
 632 1900 611 543 0 546 629 635 636 83 3 633 1 1 1 81 1 546 2064 383 543 632 0 5
42 637 638 81 1 635 1901 611 547 639 637 632 640 641 83 3 636 1 1 1 81 3 639 186
9 642 547 0 635 0 643 644 0 0 81 1 637 2065 383 547 635 645 546 554 646 81 1 640
 1902 611 551 0 554 635 647 648 83 3 641 1 1 1 81 1 554 2068 383 551 640 0 637 6
49 650 81 1 647 1903 611 555 643 649 640 651 652 83 3 648 1 1 1 81 3 643 1870 64
2 555 0 647 639 653 654 0 0 81 1 649 2069 383 555 647 655 554 562 656 81 1 651 1
904 611 559 0 562 647 657 658 83 3 652 1 1 1 81 1 562 2072 383 559 651 0 649 659
 660 81 1 657 1905 611 563 653 659 651 661 662 83 3 658 1 1 1 81 3 653 1871 642
 563 0 657 643 663 664 0 0 81 1 659 2073 383 563 657 665 562 570 666 81 1 661 19
06 611 567 0 570 657 667 668 83 3 662 1 1 1 81 1 570 2076 383 567 661 0 659 669
 670 81 1 667 1907 611 571 663 669 661 671 672 83 3 668 1 1 1 81 3 663 1872 642
 571 0 667 653 673 674 0 0 81 1 669 2077 383 571 667 675 570 578 676 81 1 671 19
08 611 575 0 578 667 677 678 83 3 672 1 1 1 81 1 578 2080 383 575 671 0 669 679
 680 81 1 677 1909 611 163 681 679 671 682 683 83 3 678 1 1 1 81 3 681 1874 642
 163 0 677 673 0 684 0 0 81 1 679 2081 383 163 677 685 578 597 686 81 1 682 1910
 611 159 0 161 677 687 688 83 3 683 1 1 1 81 1 161 2028 383 159 682 0 0 354 689
 81 1 687 1911 611 162 673 597 682 596 690 83 3 688 1 1 1 81 3 673 1873 642 162
 0 687 663 681 691 0 0 81 1 597 2084 383 162 687 585 679 587 692 81 1 596 1912 6
11 346 0 587 687 600 693 83 3 690 1 1 1 81 1 600 1913 611 18 0 598 596 603 694 8
3 3 693 1 1 1 81 1 603 1914 611 443 0 601 600 606 695 83 3 694 1 1 1 83 3 695 1
 1 1 81 3 585 2085 584 162 597 583 580 583 696 0 0 82 1 692 -2141388382 80 3 584
 697 698 9000 0 0 0 0 3 6 0 0 0 FFTTTTTTFFFFTT1 1 1 81 3 580 2083 584 163 685 0
 685 585 699 0 0 82 3 696 739143 217 2 81 3 685 2082 584 163 679 580 574 580 700
 0 0 82 3 699 739146 220 1 81 3 574 2079 584 571 675 0 675 685 701 0 0 82 3 700
 739146 220 2 81 3 675 2078 584 571 669 574 566 574 702 0 0 82 3 701 739135 209
 1 81 3 566 2075 584 563 665 0 665 675 703 0 0 82 3 702 739135 209 2 81 3 665 20
74 584 563 659 566 558 566 704 0 0 82 3 703 739123 197 1 81 3 558 2071 584 555 6
55 0 655 665 705 0 0 82 3 704 739123 197 2 81 3 655 2070 584 555 649 558 550 558
 706 0 0 82 3 705 739120 194 1 81 3 550 2067 584 547 645 0 645 655 707 0 0 82 3
 706 739120 194 2 81 3 645 2066 584 547 637 550 708 550 709 0 0 82 3 707 739099
 173 1 81 3 708 2045 584 372 710 378 710 645 711 0 0 82 3 709 739099 173 2 81 3
 710 2044 584 372 712 708 712 708 713 0 0 81 1 378 2046 383 372 708 0 376 380 71
4 82 3 711 739121 194 1 81 1 376 2039 383 367 715 0 371 378 716 82 1 714 1781531
043 81 1 715 1881 611 367 0 376 717 718 719 81 1 371 2038 383 369 720 0 366 376
 721 82 1 716 1780941219 81 1 720 1879 611 369 0 371 384 717 722 81 1 366 2037 3
83 363 718 0 362 371 723 82 1 721 1907294618 81 1 718 1882 611 363 0 366 715 724
 725 81 1 362 2036 383 356 726 0 354 366 727 82 1 723 1779761556 81 3 726 2035 5
84 356 728 362 728 729 730 0 0 81 1 354 2029 383 350 731 0 161 362 732 82 1 727
 1779171747 81 1 731 1884 611 350 0 354 724 403 733 82 1 732 1808007587 81 1 724
 1883 611 356 0 734 718 731 735 81 1 403 1885 611 355 0 401 731 736 737 83 3 733
 1 1 1 81 1 736 1886 611 358 0 404 403 738 739 83 3 737 1 1 1 81 1 404 2052 383
 358 736 0 401 490 740 81 1 738 1887 611 399 0 392 736 741 742 83 3 739 1 1 1 81
 1 392 2050 383 399 738 0 388 401 743 81 1 741 1888 611 397 0 504 738 503 744 83
 3 742 1 1 1 81 1 504 2058 383 397 741 0 501 522 745 81 1 503 1889 611 499 0 501
 741 746 747 83 3 744 1 1 1 81 1 746 1890 611 496 0 498 503 748 749 83 3 747 1 1
 1 81 1 498 2056 383 496 746 0 495 501 750 81 1 748 1891 611 478 0 495 746 620 7
51 83 3 749 1 1 1 81 1 495 2055 383 478 748 0 494 498 752 81 1 620 1892 611 475
 0 494 748 616 753 83 3 751 1 1 1 81 1 494 2054 383 475 620 0 490 495 754 83 3 7
53 1 1 1 81 1 490 2053 383 481 616 0 404 494 755 82 1 754 1873215898 82 1 755 19
36982435 82 1 752 1889927587 82 1 750 1890451864 82 1 745 1891238296 82 1 743 18
91762595 82 1 740 1807876515 81 3 734 2030 584 356 724 756 0 756 757 0 0 83 3 73
5 1 1 1 81 3 756 2031 584 356 734 758 734 758 759 0 0 82 3 757 739134 209 2 81 3
 758 2032 584 356 756 760 756 760 761 0 0 82 3 759 739136 209 1 81 3 760 2033 58
4 356 758 728 758 728 762 0 0 82 3 761 739145 220 2 81 3 728 2034 584 356 760 72
6 760 726 763 0 0 82 3 762 739147 220 1 82 3 763 739142 217 2 81 3 729 2040 584
 372 717 764 726 764 765 0 0 82 3 730 739144 217 1 81 1 717 1880 611 372 0 729 7
20 715 766 81 3 764 2041 584 372 729 767 729 767 768 0 0 82 3 765 739098 173 2 8
1 3 767 2042 584 372 764 712 764 712 769 0 0 82 3 768 739100 173 1 81 3 712 2043
 584 372 767 710 767 710 770 0 0 82 3 769 739122 197 2 82 3 770 739124 197 1 83
 3 766 1 1 1 83 3 725 1 1 1 81 1 384 1878 611 373 0 380 771 720 772 83 3 722 1 1
 1 81 1 771 1877 611 381 0 385 391 384 773 83 3 772 1 1 1 81 1 385 2048 383 381
 771 0 380 388 774 81 1 391 1876 611 16 0 388 0 771 775 83 3 773 1 1 1 83 3 775
 1 1 1 82 1 774 2003173795 83 3 719 1 1 1 82 3 713 739119 194 2 79 255 12 698 GE
NERIC_PERM80 3 642 776 777 9000 0 0 0 0 3 5 0 0 0 FFFFTFFFFFFFFF5 5 5 86 255 3 6
91 0 -1 0 -.0294448637286711 .008 -.01699999999999975 1e100 1e100 1e100 79 12 77
7 TexSplitFace82 1 689 -2140798558 82 1 686 2135359906 86 3 684 0 -1 0 .02944486
372867085 .008 -.017 1e100 1e100 1e100 82 1 680 2135949730 82 1 676 2115764641 8
6 3 674 0 -1 0 0 .008 .034 1e100 1e100 1e100 82 1 670 2116354465 82 1 666 208778
0767 86 3 664 0 1 0 2376571162088225e-31 .049 .034 1e100 1e100 1e100 82 1 660 20
88370591 82 1 656 2070217119 86 3 654 0 1 0 -.02944486372867095 .049 -.017 1e100
 1e100 1e100 82 1 650 2070806943 82 1 646 2051211678 86 3 644 0 1 0 .02944486372
867095 .049 -.017 1e100 1e100 1e100 82 1 638 2051801502 82 1 634 2021720476 82 1
 631 2022310300 82 1 628 2022900124 82 1 623 1993146779 83 3 621 1 1 1 79 15 619
 SDL/TYSA_COLOUR15 615 1050 0 510 491 778 17 510 0 615 510 510 0 227 225 0 0 -15
 778 1051 0 224 491 0 17 224 0 778 224 224 0 779 222 0 0 +17 779 0 534 779 779 0
 224 222 0 0 -15 534 1055 0 779 524 780 15 780 1056 0 221 524 0 17 221 0 780 221
 221 0 535 219 0 0 +17 535 0 525 535 535 0 221 219 0 0 -83 3 612 1 1 1 79 14 610
 SWEntUnchanged82 1 605 -2126446173 82 1 602 -2125266525 82 1 599 -2130247261 82
 3 586 739143 217 1 15 581 1416 0 781 163 595 17 781 0 581 781 781 0 179 173 0 0
 -17 179 0 782 179 179 0 781 173 0 0 +15 782 1412 0 179 575 0 15 579 1411 0 155
 575 782 17 155 0 579 155 155 153 0 0 0 0 ?15 576 1358 0 783 571 594 17 783 0 57
6 783 783 0 185 183 0 0 -17 185 0 784 185 185 0 783 183 0 0 +15 784 1354 0 185 5
67 0 15 572 1353 0 152 567 784 17 152 0 572 152 152 150 0 0 0 0 ?15 568 1289 0 7
85 563 786 17 785 0 568 785 785 0 191 189 0 0 -15 786 1290 0 188 563 0 17 188 0
 786 188 188 0 787 186 0 0 +17 787 0 379 787 787 0 188 186 0 0 -15 379 1266 0 78
7 372 788 15 788 1227 0 789 372 790 17 789 0 788 789 789 0 194 192 0 0 -15 790 1
180 0 791 372 411 17 791 0 790 791 791 0 200 198 0 0 -17 200 0 792 200 200 0 791
 198 0 0 +15 792 1202 0 200 547 0 17 194 0 793 194 194 0 789 192 0 0 +15 793 125
1 0 194 555 0 17 191 0 794 191 191 0 785 189 0 0 +15 794 1285 0 191 559 0 15 564
 1284 0 149 559 794 17 149 0 564 149 149 147 0 0 0 0 ?15 560 1250 0 795 555 793
 17 795 0 560 795 795 0 197 195 0 0 -17 197 0 796 197 197 0 795 195 0 0 +15 796
 1246 0 197 551 0 15 556 1245 0 146 551 796 17 146 0 556 146 146 144 0 0 0 0 ?15
 552 1201 0 797 547 792 17 797 0 552 797 797 0 203 201 0 0 -17 203 0 798 203 203
 0 797 201 0 0 +15 798 1197 0 203 543 0 15 548 1196 0 143 543 798 17 143 0 548 1
43 143 141 0 0 0 0 ?15 544 1142 0 799 539 800 17 799 0 544 799 799 0 209 207 0 0
 -15 800 1143 0 206 539 0 17 206 0 800 206 206 0 801 204 0 0 +17 801 0 394 801 8
01 0 206 204 0 0 -15 394 1105 0 801 16 0 17 209 0 802 209 209 0 799 207 0 0 +15
 802 1138 0 209 530 0 15 540 1137 0 803 530 802 17 803 0 540 803 803 0 212 210 0
 0 -17 212 0 804 212 212 0 803 210 0 0 +15 804 1133 0 212 523 0 15 531 1132 0 50
8 523 804 17 508 0 531 508 508 0 215 213 0 0 -82 1 529 1992556955 17 39 0 434 43
5 32 41 24 10 0 0 -17 112 0 474 109 115 110 513 252 0 516 +17 115 0 474 112 118
 113 512 250 0 511 +17 118 0 474 115 121 116 805 248 0 514 +17 512 0 509 280 511
 116 115 250 0 0 -17 805 0 506 283 514 119 118 248 0 0 -17 514 0 506 805 263 116
 280 278 0 512 -15 506 602 0 263 397 0 17 263 0 506 514 283 101 470 261 0 280 +1
7 283 0 506 263 805 104 471 281 0 470 +17 471 0 389 472 106 119 283 281 0 805 -8
2 1 505 1890714012 15 469 58 0 806 356 0 17 806 0 469 806 806 0 321 319 0 0 -17
 321 0 368 321 321 0 806 319 0 0 +15 368 121 0 321 363 807 15 807 63 0 808 363 0
 17 808 0 807 808 808 0 324 322 0 0 -17 324 0 428 324 324 0 808 322 0 0 +15 428
 122 0 324 369 0 40 2 463 0 1 2 12613060725468e-19 .00178502768903912 ??-.028860
65573770495 .0540440247775293 -.01 -.02987055406248765 .055 -.01 41 1 464 L?-.02
886065573770495 .0540440247775293 -.01 41 1 465 L?-.02987055406248765 .055 -.01
 204 8 466 4 4.378842316954625 -.000955975222470748 -.001639344262295085 .082644
6200103521 4.38933892087184 0 -.000629445937512352 .0836005952328229 82 1 405 18
07614358 82 1 393 2031878563 82 1 386 1909260707 141 360 462 360 360 351 141 349
 334 809 810 338 141 809 462 810 349 338 141 810 345 349 809 338 19 17 47 0 1 0
 9 5 S0 74 4 CI16 index_map_offset0 0 1 dCCZ20 15 11 0 0 607 811 812 583 813 814
 815 13 681 606 2 0 0 0 0 0 0 0 0 0 81 2 811 718 816 1 0 812 0 0 0 817 81 2 812
 732 818 1 811 813 0 0 0 819 81 1 813 1814 820 1 812 814 0 0 821 81 2 814 1824 8
22 1 813 815 0 0 823 0 81 2 815 1865 824 1 814 13 0 0 0 825 81 2 13 1868 826 1 8
15 2 0 0 0 0 80 2 826 827 828 9000 0 0 0 0 3 5 0 0 0 FFTFFFFFFFFFFF9 1 79 16 828
 BODY_RECIPE_200180 2 824 829 830 9000 0 0 0 0 3 5 0 0 0 FFTFFFFFFFFFFF9 1 82 1
 825 1 79 24 830 BODY_IN_LIGHTWEIGHT_PERM80 2 822 831 832 8004 0 0 0 0 3 5 0 0 0
 FFTFFFFFFFFFFF2 3 83 1 823 1e3 79 16 832 SDL/TYSA_DENSITY80 1 820 833 834 9000
 1 1 1 1 1 1 1 1 0 FFTFFFFFFFFFFF1 82 1 821 4942284 79 10 834 BODY_MATCH80 2 818
 835 836 9000 0 0 0 0 3 5 0 0 0 FFTFFFFFFFFFFF9 1 82 1 819 225 79 30 836 LAST_BO
DY_MODIFYING_FEATURE_ID80 2 816 837 838 9000 0 0 0 0 3 5 0 0 0 FFTFFFFFFFFFFT9 1
 82 1 817 501 79 19 838 ENT_TIME_STAMP_200180 2 12 839 840 9000 0 0 0 0 3 5 0 0
 0 FFTFFFFFFFFFFF9 1 82 1 14 115 79 12 840 ATOM_ID_20011 0 
