**ABCDEFGHIJKLMNOPQRSTUVWXYZabcdefghijklmnopqrstuvwxyz**************************
**PARASOLID !"#$%&'()*+,-./:;<=>?@[\]^_`{|}~0123456789**************************
**PART1;
MC=AMD64;
MC_MODEL=Intel64 Family 6 Model 158 Stepping 10, GenuineIntel;
MC_ID=unknown;
OS=Windows_NT;
OS_RELEASE=unknown;
FRU=Parasolid Version 31.0, build 282,  2-25-2019;
APPL=SOLIDWORKS 2019-2019227;
SITE=;
USER=unknown;
FORMAT=text;
GUISE=transmit;
KEY=LRM0500 加强筋;
FILE=LRM0500 加强筋.x_t;
DATE=Fri Jun 11 13:35:42 2021;
**PART2;
SCH=SCH_3100282_31001;
USFLD_SIZE=0;
**PART3;
**END_OF_HEADER*****************************************************************
T51 : TRANSMIT FILE created by modeller version 310028223 SCH_3100282_31001_1300
6215 0 12 34 CCCCCCI4 mesh1006 0 I8 polyline1008 0 CCCCCCCDI5 owner1040 0 CCCCCC
I13 boundary_mesh1006 0 I17 boundary_polyline1008 0 CCCA16 index_map_offset0 0 1
 dA9 index_map82 0 A17 node_id_index_map82 0 A20 schema_embedding_map82 0 A5 chi
ld12 0 A14 lowest_node_id0 0 1 dA16 mesh_offset_data206 0 Z1 541 2 3 0 0 0 0 0 0
 1e3 1e-8 0 4 0 1 0 1 1 5 6 7 8 0 0 9 10 11 0 0 0 0 0 0 0 81 255 2 2 511 12 1 13
 0 0 0 0 14 70 11 CI9 list_type0 0 1 uI10 notransmit0 0 1 lCCCDCCDI12 finger_ind
ex0 0 1 dI12 finger_block1012 0 CZ3 0 4 T1 0 0 11 20 1 15 15 13 255 5 120 0 1 0
 16 0 0 17 0 50 255 6 114 0 16 18 0 0 +.005 -.05 0 0 0 -1 -1 0 0 30 255 7 119 0
 10 19 0 0 +.005 -.05 0 -1 0 0 29 255 8 90 0 20 21 0 -.005 0 0 19 8 CCCCCCCA5 ow
ner12 0 Z9 40 0 1 17 0 22 V0 16 255 10 99 0 ?23 0 24 7 0 0 1 18 255 11 37 0 25 0
 26 27 ?1 17 255 25 0 28 29 30 11 31 32 0 33 +18 26 34 0 30 11 34 35 ?1 29 27 39
 0 11 35 36 .005 0 0 29 35 36 0 26 37 27 .005 0 -.05 29 36 94 0 38 27 39 -.005 -
.05 0 18 38 83 0 40 41 42 36 ?1 29 39 93 0 41 36 43 -.005 -.05 -.01 18 41 82 0 4
4 45 38 39 ?1 29 43 92 0 45 39 21 -.005 -.01 -.05 18 45 81 0 46 47 41 43 ?1 29 2
1 91 0 47 43 8 -.005 0 -.05 18 47 80 0 48 20 45 21 ?1 17 48 0 49 50 51 47 52 53
 0 54 +18 20 79 0 55 56 47 8 ?1 17 55 0 57 33 54 20 58 59 0 60 +18 56 25 0 61 62
 20 63 ?1 17 61 0 64 23 65 56 66 67 0 29 -18 62 28 0 66 34 56 68 ?1 29 63 27 0 5
6 69 68 .005 -.05 0 29 69 212 0 42 70 63 -391676826860457e-32 -.0159914200213954
5 -.008 29 68 30 0 62 63 37 .005 -.05 -.01 29 37 33 0 34 68 35 .005 -.01 -.05 18
 34 31 0 71 26 62 37 ?1 17 71 0 28 30 66 34 72 73 0 74 +15 255 28 4 0 29 75 0 17
 30 0 28 25 71 26 76 77 0 50 +17 66 0 28 71 29 62 61 67 0 65 +17 72 0 78 79 74 6
2 71 73 0 0 -16 73 13 0 ?71 77 67 80 0 0 1 17 74 0 78 72 46 34 51 81 0 76 -15 78
 104 0 46 82 0 17 46 0 78 74 79 45 83 84 0 51 +17 51 0 49 48 76 45 74 81 0 52 +1
6 81 97 0 ?51 24 85 86 0 0 1 17 76 0 49 51 50 34 30 77 0 0 -15 49 102 0 48 87 0
 17 50 0 49 76 48 26 54 85 0 31 -16 77 17 0 ?30 32 73 88 0 0 1 16 32 21 0 ?25 89
 77 90 0 0 1 30 88 19 0 77 80 90 0 +.005 0 -.05 0 1 0 30 80 15 0 73 91 88 0 +.00
5 -.01 -.05 0 .707106781186548 -.707106781186548 30 90 23 0 32 88 92 0 +.005 0 0
 0 0 1 30 92 89 0 93 90 94 0 +-.005 -.05 0 0 -1 0 16 93 75 0 ?95 96 97 92 0 0 1
 30 94 88 0 96 92 98 0 +-.005 -.05 -.01 0 0 -1 16 96 71 0 ?44 84 93 94 0 0 1 30
 98 87 0 84 94 99 0 +-.005 -.01 -.05 0 .707106781186548 -.707106781186548 16 84
 67 0 ?46 53 96 98 0 0 1 30 99 86 0 53 98 100 0 +-.005 0 -.05 0 1 0 16 53 63 0 ?
48 59 84 99 0 0 1 30 100 85 0 59 99 101 0 +-.005 0 0 0 0 1 16 59 59 0 ?55 102 53
 100 0 0 1 30 101 115 0 89 100 103 0 +.005 0 0 -1 0 0 16 89 95 0 ?60 85 32 101 0
 0 1 30 103 116 0 85 101 86 0 +.005 0 -.05 -1 0 0 16 85 96 0 ?54 81 89 103 0 0 1
 30 86 117 0 81 103 19 0 +.005 -.01 -.05 -1 0 0 30 19 118 0 24 86 7 0 +.005 -.05
 -.01 -1 0 0 16 24 98 0 ?79 10 81 19 0 0 1 17 79 0 78 46 72 41 65 24 0 83 +17 65
 0 64 61 44 62 79 24 0 72 -17 83 0 104 40 52 41 46 84 0 0 -15 104 58 0 105 106 0
 17 40 0 104 105 83 38 44 96 0 23 -17 52 0 104 83 58 45 48 53 0 0 -17 58 0 104 5
2 105 47 55 59 0 0 -17 105 0 104 58 40 20 95 93 0 0 -17 95 0 107 108 60 38 105 9
3 0 0 +15 107 108 0 95 16 0 17 108 0 107 109 95 56 23 10 0 0 -17 60 0 107 95 109
 20 33 89 0 105 +17 109 0 107 60 108 11 29 102 0 0 -17 33 0 57 31 55 11 60 89 0
 109 -15 57 100 0 55 110 0 17 31 0 57 54 33 26 25 32 0 0 -17 54 0 57 55 31 47 50
 85 0 58 +14 255 110 101 111 ?75 87 112 5 113 -0 0 75 87 22 81 3 111 516 114 110
 115 0 115 116 117 0 0 14 75 1 118 ?106 110 28 5 119 -0 0 106 110 22 14 87 103 1
20 ?110 82 49 5 121 -0 0 110 82 22 15 112 233 0 122 110 123 50 113 110 0 110 124
 121 0 +.005 0 0 0 -1 0 0 0 -1 13 22 41 0 0 0 0 0 0 9 16 14 16 109 125 ?126 0 12
7 5 6 -0 0 126 0 22 81 3 125 523 114 16 128 0 128 129 130 0 0 14 126 107 131 ?82
 16 64 5 18 -0 0 82 16 22 15 127 353 0 132 16 133 17 132 0 127 132 132 0 134 135
 0 0 -15 133 295 0 136 16 107 17 136 0 133 136 136 0 137 138 0 0 -17 137 0 139 1
37 137 0 136 138 0 0 +16 138 308 0 ?137 140 141 142 0 0 1 16 140 309 0 ?143 144
 138 145 0 0 1 16 141 367 0 ?146 138 135 147 0 0 1 31 255 142 331 0 138 147 145
 0 +0 -.02 1353234713057822e-33 0 0 1 1 0 0 .00165 31 147 388 0 141 148 142 0 +0
 -.04 -.0164 0 0 1 1 0 0 .00165 31 145 330 0 140 142 149 0 +0 -.02 -.0164 0 0 1
 1 0 0 .00165 31 149 267 0 144 145 150 0 +0 1353234713057822e-33 -.038 0 1 0 0 0
 1 .00165 16 144 244 0 ?151 152 140 149 0 0 1 31 150 266 0 152 149 153 0 +0 -.01
5 -.038 0 1 0 0 0 1 .00165 16 152 245 0 ?154 155 144 150 0 0 1 31 153 211 0 155
 150 156 0 +0 1353234713057822e-33 -.008 0 1 0 0 0 1 .00165 16 155 188 0 ?157 97
 152 153 0 0 1 31 156 210 0 97 153 158 0 +0 -.015 -.008 0 1 0 0 0 1 .00165 16 97
 189 0 ?159 93 155 156 0 0 1 30 158 7 0 102 156 91 0 +.005 -.05 0 0 -1 0 16 102
 5 0 ?29 67 59 158 0 0 1 30 91 11 0 67 158 80 0 +.005 -.05 -.01 0 0 -1 16 67 9 0
 ?66 73 102 91 0 0 1 17 29 0 28 66 25 56 109 102 0 108 +17 159 0 160 159 159 0 1
61 97 0 0 +15 160 199 0 159 162 0 17 161 0 163 161 161 0 159 97 0 0 -15 163 203
 0 161 164 165 14 164 200 166 ?167 162 163 5 168 -0 0 167 162 22 15 165 204 0 15
7 164 0 17 157 0 165 157 157 0 169 155 0 0 +17 169 0 123 169 169 0 157 155 0 0 -
15 123 178 0 169 110 57 81 3 166 527 114 164 129 0 129 170 171 0 0 14 167 251 17
2 ?173 164 174 5 175 -0 0 173 164 22 14 162 195 176 ?164 106 177 5 178 -0 0 164
 106 22 51 255 168 209 0 164 175 178 0 +0 0 -.008 0 1 0 .00165 0 0 1 52 255 175
 264 0 167 179 168 0 +0 -.015 -.038 0 1 0 .00165 .857167300702112 .5150380749100
55 0 0 1 52 178 208 0 162 168 119 0 +0 -.015 -.008 0 1 0 .00165 .857167300702112
 .515038074910055 0 0 1 50 119 3 0 75 178 124 0 +.005 0 0 -1 0 0 0 0 1 50 124 84
 0 106 119 113 0 +-.005 0 0 -1 0 0 0 0 1 14 106 57 180 ?162 75 104 5 124 +0 0 16
2 75 22 81 1 180 530 181 106 182 0 176 183 184 80 255 1 181 185 186 9000 1 1 1 1
 1 1 1 1 0 FFFFTFTFFFFFFF1 81 1 182 456 187 106 0 180 188 189 190 81 1 176 529 1
81 162 189 0 172 180 191 81 1 183 531 181 173 192 170 180 193 194 82 255 1 184 8
98236558 14 173 256 195 ?196 167 197 5 179 -0 0 196 167 22 81 1 192 460 187 173
 0 183 198 199 200 81 3 170 532 114 173 183 195 166 195 201 0 0 81 1 193 534 181
 196 199 0 183 202 203 82 1 194 -1844576107 14 196 315 193 ?204 173 205 5 206 -0
 0 204 173 22 81 1 199 461 187 196 0 193 192 207 208 81 1 202 535 181 204 207 20
9 193 210 211 82 1 203 -326106977 14 204 320 212 ?213 196 214 5 215 -0 0 213 196
 22 81 1 207 462 187 204 216 202 199 217 218 81 3 209 536 114 204 202 212 195 21
2 219 0 0 81 1 210 538 181 213 217 0 202 220 221 82 1 211 -326696801 14 213 373
 210 ?222 204 223 5 224 -0 0 222 204 22 81 1 217 463 187 213 0 210 207 225 226 8
1 1 220 539 181 222 225 227 210 228 229 82 1 221 -244842334 14 222 378 227 ?0 21
3 230 5 231 -0 0 0 213 22 81 1 225 464 187 222 232 220 217 0 233 81 3 227 540 11
4 222 220 0 212 0 234 0 0 81 1 228 541 181 82 235 0 220 0 236 82 1 229 -24543215
8 14 82 105 228 ?87 126 78 5 237 -0 0 87 126 22 81 1 235 452 187 82 0 228 238 23
9 240 82 1 236 899874958 80 1 187 0 241 8001 0 0 0 0 3 5 0 0 0 FFFFTFTFFFFFFF2 8
1 1 238 451 187 126 0 131 242 235 243 81 1 239 453 187 87 0 120 235 244 245 83 2
55 3 240 1 1 1 81 1 120 518 181 87 239 0 118 246 247 81 1 244 454 187 110 0 248
 239 188 249 83 3 245 1 1 1 81 1 248 512 181 110 244 250 0 118 251 81 1 188 455
 187 75 0 118 244 182 252 83 3 249 1 1 1 81 1 118 517 181 75 188 0 248 120 253 8
3 3 252 1 1 1 82 1 253 891420814 81 3 250 513 114 110 248 254 0 254 255 0 0 82 1
 251 899350677 80 3 114 256 257 9000 0 0 0 0 3 6 0 0 0 FFTTTTTTFFFFTT1 1 1 81 3
 254 514 114 110 250 115 250 115 258 0 0 82 3 255 739024 99 2 81 3 115 515 114 1
10 254 111 254 111 259 0 0 82 3 258 739026 99 1 82 3 259 739035 108 1 79 255 12
 257 GENERIC_PERM81 1 246 519 181 16 242 116 120 131 260 82 1 247 899612814 81 1
 242 450 187 16 0 246 0 238 261 81 3 116 520 114 16 246 262 111 262 263 0 0 81 1
 131 524 181 126 238 0 246 264 265 82 1 260 900399266 81 1 264 525 181 164 266 1
29 131 172 267 82 1 265 900137102 81 1 266 458 187 164 0 264 189 198 268 81 3 12
9 526 114 164 264 166 125 166 269 0 0 81 1 172 528 181 167 198 0 264 176 270 82
 1 267 -1919614829 81 1 198 459 187 167 0 172 266 192 271 82 1 270 -1843986283 8
3 3 271 1 1 1 82 3 269 739025 99 2 81 1 189 457 187 162 0 176 182 266 272 83 3 2
68 1 1 1 83 3 272 1 1 1 81 3 262 521 114 16 116 128 116 128 273 0 0 82 3 263 739
050 123 1 81 3 128 522 114 16 262 125 262 125 274 0 0 82 3 273 739056 131 2 82 3
 274 739048 123 2 83 3 261 1 1 1 83 3 243 1 1 1 79 15 241 SDL/TYSA_COLOUR50 237
 112 0 82 121 18 0 +.005 -.01 -.05 0 .707106781186548 .707106781186548 0 -.70710
6781186548 .707106781186548 50 121 111 0 87 113 237 0 +.005 0 -.05 0 0 1 1 0 0 5
0 18 113 0 126 237 6 0 +.005 -.05 -.01 0 1 0 0 0 1 81 3 212 537 114 204 209 0 20
9 227 275 0 0 82 3 234 739057 131 2 82 3 275 739049 123 1 81 3 232 449 276 222 0
 225 216 0 277 0 0 83 3 233 1 1 1 80 3 276 278 279 9000 0 0 0 0 3 5 0 0 0 FFFFTF
FFFFFFFF5 5 5 81 3 216 448 276 204 0 207 0 232 280 0 0 86 255 3 277 0 0 1 0 -.04
 -.0143 1e100 1e100 1e100 86 3 280 0 0 1 0 -.02 -.0143 1e100 1e100 1e100 79 12 2
79 TexSplitFace15 230 381 0 281 222 282 51 231 387 0 222 0 224 0 +0 -.04 0 0 0 1
 .00165 1 0 0 52 224 386 0 213 231 215 0 +0 -.04 -.0164 0 0 1 .00165 .8571673007
02111 .515038074910056 1 0 0 51 215 329 0 204 224 206 0 +0 -.02 0 0 0 1 .00165 1
 0 0 52 206 328 0 196 215 179 0 +0 -.02 -.0164 0 0 1 .00165 .857167300702111 .51
5038074910056 1 0 0 51 179 265 0 173 206 175 0 +0 0 -.038 0 1 0 .00165 0 0 1 17
 281 0 230 281 281 0 146 141 0 0 -15 282 382 0 134 222 0 17 134 0 282 134 134 0
 132 135 0 0 +16 135 366 0 ?134 141 0 148 0 0 1 31 148 389 0 135 0 147 0 +0 -.04
 1353234713057822e-33 0 0 1 1 0 0 .00165 17 146 0 283 146 146 0 281 141 0 0 +15
 283 377 0 146 213 0 83 3 226 1 1 1 15 223 376 0 284 213 283 17 284 0 223 284 28
4 285 0 0 0 0 ?18 285 368 0 284 286 0 287 ?1 18 286 310 0 288 289 285 290 ?1 29
 287 390 0 285 0 290 -425966937236583e-32 -.04 -.01739142002139545 29 290 332 0
 286 287 70 -425966937236583e-32 -.02 -.01739142002139545 29 70 268 0 289 290 69
 -391676826860457e-32 -.01599142002139545 -.038 18 289 246 0 291 42 286 70 ?1 17
 291 0 174 291 291 289 0 0 0 0 ?18 42 190 0 292 38 289 69 ?1 17 292 0 177 292 29
2 42 0 0 0 0 ?15 177 198 0 292 162 160 15 174 254 0 291 167 293 15 293 255 0 154
 167 0 17 154 0 293 154 154 0 294 152 0 0 +17 294 0 197 294 294 0 154 152 0 0 -1
5 197 259 0 294 173 295 15 295 260 0 151 173 0 17 151 0 295 151 151 0 122 144 0
 0 +17 122 0 112 122 122 0 151 144 0 0 -17 288 0 205 288 288 286 0 0 0 0 ?15 205
 318 0 288 196 296 15 296 319 0 143 196 0 17 143 0 296 143 143 0 297 140 0 0 +17
 297 0 214 297 297 0 143 140 0 0 -15 214 323 0 297 204 139 15 139 324 0 137 204
 0 81 3 195 533 114 173 170 0 170 209 298 0 0 82 3 219 739049 123 2 82 3 298 739
034 108 2 83 3 218 1 1 1 83 3 208 1 1 1 82 3 201 739034 108 1 83 3 200 1 1 1 82
 1 191 -1919025005 83 3 190 1 1 1 79 14 186 SWEntUnchanged82 3 171 739025 99 1 1
5 64 106 0 44 126 0 17 44 0 64 65 23 41 40 96 0 79 +17 23 0 64 44 61 38 108 10 0
 95 +82 3 130 739058 131 1 82 3 117 739033 108 2 19 17 121 0 1 0 9 5 S0 74 4 CI1
6 index_map_offset0 0 1 dCCZ20 15 11 0 0 299 300 228 301 227 302 303 13 232 225
 2 0 0 0 0 0 0 0 0 0 81 2 299 149 304 1 0 300 0 0 0 305 81 2 300 153 306 1 299 3
01 0 0 0 307 81 2 301 170 308 1 300 302 0 0 0 309 81 1 302 401 310 1 301 303 0 0
 311 81 2 303 410 312 1 302 13 0 0 313 0 81 2 13 446 314 1 303 2 0 0 0 0 80 2 31
4 315 316 9000 0 0 0 0 3 5 0 0 0 FFTFFFFFFFFFFF9 1 79 16 316 BODY_RECIPE_200180
 2 312 317 318 8004 0 0 0 0 3 5 0 0 0 FFTFFFFFFFFFFF2 3 83 1 313 1e3 79 16 318 S
DL/TYSA_DENSITY80 1 310 319 320 9000 1 1 1 1 1 1 1 1 0 FFTFFFFFFFFFFF1 82 1 311
 6894880 79 10 320 BODY_MATCH80 2 308 321 322 9000 0 0 0 0 3 5 0 0 0 FFTFFFFFFFF
FFF9 1 82 1 309 1 79 24 322 BODY_IN_LIGHTWEIGHT_PERM80 2 306 323 324 9000 0 0 0
 0 3 5 0 0 0 FFTFFFFFFFFFFF9 1 82 1 307 130 79 30 324 LAST_BODY_MODIFYING_FEATUR
E_ID80 2 304 325 326 9000 0 0 0 0 3 5 0 0 0 FFTFFFFFFFFFFT9 1 82 1 305 147 79 19
 326 ENT_TIME_STAMP_200180 2 12 327 328 9000 0 0 0 0 3 5 0 0 0 FFTFFFFFFFFFFF9 1
 82 1 14 110 79 12 328 ATOM_ID_20011 0 
