**ABCDEFGHIJKLMNOPQRSTUVWXYZabcdefghijklmnopqrstuvwxyz**************************
**PARASOLID !"#$%&'()*+,-./:;<=>?@[\]^_`{|}~0123456789**************************
**PART1;
MC=AMD64;
MC_MODEL=Intel64 Family 6 Model 158 Stepping 10, GenuineIntel;
MC_ID=unknown;
OS=Windows_NT;
OS_RELEASE=unknown;
FRU=Parasolid Version 31.0, build 282,  2-25-2019;
APPL=SOLIDWORKS 2019-2019227;
SITE=;
USER=unknown;
FORMAT=text;
GUISE=transmit;
KEY=LRM0650 À©Êø¾µ¶¨Î»¿é;
FILE=LRM0650 À©Êø¾µ¶¨Î»¿é.x_t;
DATE=Fri Oct  8 14:21:49 2021;
**PART2;
SCH=SCH_3100282_31001;
USFLD_SIZE=0;
**PART3;
**END_OF_HEADER*****************************************************************
T51 : TRANSMIT FILE created by modeller version 310028223 SCH_3100282_31001_1300
6215 0 12 34 CCCCCCI4 mesh1006 0 I8 polyline1008 0 CCCCCCCDI5 owner1040 0 CCCCCC
I13 boundary_mesh1006 0 I17 boundary_polyline1008 0 CCCA16 index_map_offset0 0 1
 dA9 index_map82 0 A17 node_id_index_map82 0 A20 schema_embedding_map82 0 A5 chi
ld12 0 A14 lowest_node_id0 0 1 dA16 mesh_offset_data206 0 Z1 836 2 3 0 0 0 0 0 0
 1e3 1e-8 0 4 0 1 0 1 1 5 6 7 8 0 0 9 10 11 0 0 0 0 0 0 0 81 255 2 2 820 12 1 13
 0 0 0 0 14 70 11 CI9 list_type0 0 1 uI10 notransmit0 0 1 lCCCDCCDI12 finger_ind
ex0 0 1 dI12 finger_block1012 0 CZ3 0 4 T1 0 0 8 20 1 15 15 13 255 5 94 0 1 0 16
 0 0 17 0 50 255 6 495 0 18 19 0 0 --.018 -.0075 .008 .707106781186549 .70710678
1186546 0 0 0 -1 30 255 7 402 0 10 20 0 0 --.02 .0055 0 -.707106781186549 -.7071
06781186546 0 29 255 8 554 0 11 21 0 -.004 -.00225 0 19 8 CCCCCCCA5 owner12 0 Z9
 28 0 1 17 0 22 V0 16 255 10 400 0 ?23 0 24 7 0 0 1 18 255 11 552 0 25 0 26 8 ?1
 17 255 25 0 27 28 29 11 30 31 0 32 -18 26 529 0 33 11 34 21 ?1 17 33 0 35 36 37
 26 38 39 0 40 +18 34 382 0 41 26 42 43 ?1 29 21 531 0 26 43 8 -.016 -.00225 .00
8 29 43 384 0 34 44 21 -.02 -.0055 0 29 44 381 0 42 45 43 -.02 .0055 0 18 42 379
 0 46 34 47 44 ?1 29 45 368 0 47 48 44 -.018 .0075 0 18 47 366 0 23 42 49 45 ?1
 29 48 345 0 49 50 45 -.02 -.0055 .008 18 49 343 0 51 47 52 48 ?1 29 50 342 0 52
 53 48 -.02 .0055 .008 18 52 340 0 54 49 55 50 ?1 29 53 339 0 55 56 50 -.018 .00
75 .008 18 55 337 0 57 52 58 53 ?1 29 56 336 0 58 59 53 .018 .0075 .008 18 58 33
4 0 60 55 61 56 ?1 29 59 323 0 61 62 56 -.018 -.0075 0 18 61 321 0 63 58 64 59 ?
1 29 62 320 0 64 65 59 .018 -.0075 .008 18 64 318 0 66 61 67 62 ?1 29 65 317 0 6
7 68 62 -.018 -.0075 .008 18 67 315 0 69 64 70 65 ?1 29 68 304 0 70 71 65 .018 .
0075 .003 18 70 302 0 72 67 73 68 ?1 29 71 301 0 73 74 68 .018 -.0075 .003 18 73
 299 0 75 70 76 71 ?1 29 74 288 0 76 77 71 .02 .0055 .008 18 76 286 0 78 73 79 7
4 ?1 29 77 285 0 79 80 74 .02 -.0055 .008 18 79 283 0 81 76 82 77 ?1 29 80 282 0
 82 83 77 .02 -.0055 .003 18 82 280 0 84 79 85 80 ?1 29 83 279 0 85 86 80 .02 .0
055 .003 18 85 277 0 87 82 88 83 ?1 29 86 134 0 88 89 83 .005 -.0075 0 18 88 132
 0 90 85 91 86 ?1 29 89 256 0 91 92 86 .005 -.0075 .003 18 91 203 0 93 88 94 89
 ?1 29 92 257 0 94 95 89 .005 .0075 .003 18 94 205 0 96 91 97 92 ?1 29 95 258 0
 97 98 92 .005 .0075 0 18 97 207 0 99 94 100 95 ?1 29 98 648 0 101 102 95 -.016
 .00225 .008 18 101 601 0 37 103 104 98 ?1 29 102 649 0 104 105 98 -.004 .00225
 .008 18 104 603 0 106 101 107 102 ?1 29 105 650 0 107 108 102 -.004 -.00225 .00
8 18 107 605 0 28 104 0 105 ?1 29 108 652 0 100 109 105 -.016 .00225 0 18 100 59
8 0 110 97 111 108 ?1 29 109 653 0 111 112 108 -.004 .00225 0 18 111 600 0 29 10
0 103 109 ?1 29 112 655 0 103 0 109 -.016 -.00225 0 18 103 604 0 36 111 101 112
 ?1 17 36 0 35 113 33 103 40 114 0 115 -15 255 35 609 0 33 116 0 17 113 0 35 37
 36 100 117 118 0 119 -17 40 0 120 121 115 26 36 114 0 122 +16 114 573 0 ?40 123
 124 125 0 0 1 17 115 0 120 40 32 103 126 127 0 117 -15 120 621 0 121 128 0 17 3
2 0 120 115 121 11 28 123 0 126 -17 126 0 129 30 117 11 115 127 0 0 +16 127 582
 0 ?126 31 118 130 0 0 1 17 117 0 129 126 119 103 113 118 0 0 +15 129 550 0 119
 16 131 17 119 0 129 117 30 100 132 124 0 0 +16 118 570 0 ?117 127 133 134 0 0 1
 16 133 595 0 ?135 118 136 137 0 0 1 31 255 134 647 0 118 0 130 0 +-.016 1127570
259384924e-32 0 0 0 1 1 0 0 .00225 30 130 646 0 127 134 138 0 +-.016 -.00225 0 1
 72280144832367e-30 0 31 138 645 0 31 130 139 0 +-.004 1127570259384924e-32 0 0
 0 1 1 0 0 .00225 16 31 578 0 ?30 124 127 138 0 0 1 30 139 644 0 124 138 140 0 +
-.004 .00225 0 -1 72280144832367e-30 0 16 124 574 0 ?119 114 31 139 0 0 1 31 140
 643 0 39 139 141 0 +-.016 1127570259384924e-32 .008 0 0 1 1 0 0 .00225 16 39 58
6 0 ?33 142 0 140 0 0 1 30 141 642 0 142 140 143 0 +-.016 -.00225 .008 1 7228014
4832367e-30 0 16 142 589 0 ?121 136 39 141 0 0 1 31 143 641 0 136 141 137 0 +-.0
04 1127570259384924e-32 .008 0 0 1 1 0 0 .00225 16 136 592 0 ?144 133 142 143 0
 0 1 30 137 640 0 133 143 145 0 +-.004 .00225 .008 -1 72280144832367e-30 0 30 14
5 639 0 146 137 147 0 +-.016 .00225 0 0 0 1 16 146 577 0 ?37 148 149 145 0 0 1 3
0 147 638 0 149 145 150 0 +-.004 .00225 0 0 0 1 16 149 581 0 ?106 146 123 147 0
 0 1 30 150 637 0 123 147 125 0 +-.004 -.00225 0 0 0 1 16 123 585 0 ?28 149 114
 150 0 0 1 30 125 636 0 114 150 151 0 +-.016 -.00225 0 0 0 1 30 151 250 0 152 12
5 153 0 +.005 -.0075 0 0 1 0 16 152 173 0 ?99 154 148 151 0 0 1 30 153 249 0 154
 151 155 0 +.005 .0075 0 0 0 1 16 154 185 0 ?156 157 152 153 0 0 1 30 155 248 0
 157 153 158 0 +.005 -.0075 .003 0 -1 0 16 157 181 0 ?159 160 154 155 0 0 1 30 1
58 247 0 160 155 161 0 +.005 -.0075 0 0 0 -1 16 160 177 0 ?162 163 157 158 0 0 1
 30 161 244 0 148 158 164 0 +.02 -.0075 .003 0 -1 0 16 148 278 0 ?165 152 146 16
1 0 0 1 30 164 241 0 166 161 167 0 +.005 -.0075 .003 1 0 0 16 166 184 0 ?168 169
 163 164 0 0 1 30 167 240 0 163 164 170 0 +.005 .0075 .003 1 0 0 16 163 188 0 ?1
71 166 160 167 0 0 1 30 170 5 0 172 167 173 0 +.02 .0075 .008 0 1 0 16 172 284 0
 ?174 175 176 170 0 0 1 30 173 8 0 175 170 177 0 +-.02 .0075 .008 -1 0 0 16 175
 335 0 ?178 179 172 173 0 0 1 30 177 11 0 179 173 180 0 +-.02 .0075 .008 4625929
26927149e-30 -1 0 16 179 341 0 ?181 182 175 177 0 0 1 30 180 14 0 182 177 183 0
 +-.02 -.0075 .008 1 0 0 16 182 316 0 ?184 185 179 180 0 0 1 30 183 68 0 169 180
 186 0 +-.02 .0075 0 -1 0 0 16 169 136 0 ?187 188 166 183 0 0 1 30 186 67 0 188
 183 189 0 +-.02 .0075 0 462592926927149e-30 -1 0 16 188 380 0 ?190 176 169 186
 0 0 1 30 189 66 0 176 186 191 0 +-.02 -.0075 0 1 0 0 16 176 322 0 ?90 172 188 1
89 0 0 1 30 191 291 0 185 189 192 0 +.02 .0055 .008 0 0 1 16 185 289 0 ?78 193 1
82 191 0 0 1 30 192 296 0 193 191 194 0 +.02 -.0055 .008 0 0 -1 16 193 294 0 ?19
5 196 185 192 0 0 1 30 194 307 0 196 192 197 0 -.018 .0075 .003 -.70710678118654
7 .707106781186548 0 16 196 305 0 ?87 198 193 194 0 0 1 30 197 312 0 198 194 199
 0 -.02 -.0055 .003 .707106781186549 .707106781186546 0 16 198 310 0 ?75 200 196
 197 0 0 1 30 199 326 0 200 197 201 0 +-.018 -.0075 .008 0 0 -1 16 200 324 0 ?20
2 203 198 199 0 0 1 30 201 331 0 203 199 204 0 +.018 -.0075 .008 0 0 1 16 203 32
9 0 ?66 205 200 201 0 0 1 30 204 348 0 205 201 206 0 --.01275 -.01275 .008 -.707
106781186546 .707106781186549 0 16 205 346 0 ?69 207 203 204 0 0 1 30 206 353 0
 207 204 208 0 --.01275 .01275 .008 .707106781186549 .707106781186546 0 16 207 3
51 0 ?54 209 205 206 0 0 1 30 208 358 0 209 206 210 0 -.01275 .01275 .008 .70710
6781186547 -.707106781186548 0 16 209 356 0 ?60 211 207 208 0 0 1 30 210 363 0 2
11 208 212 0 -.01275 -.01275 .008 -.707106781186549 -.707106781186546 0 16 211 3
61 0 ?81 213 209 210 0 0 1 30 212 371 0 213 210 214 0 +-.018 .0075 .008 0 0 1 16
 213 369 0 ?57 215 211 212 0 0 1 30 214 376 0 215 212 216 0 +.018 .0075 .008 0 0
 -1 16 215 374 0 ?217 218 213 214 0 0 1 30 216 387 0 218 214 219 0 +-.02 -.0055
 .008 0 0 1 16 218 385 0 ?51 220 215 216 0 0 1 30 219 392 0 220 216 20 0 +-.02 .
0055 .008 0 0 -1 16 220 390 0 ?221 24 218 219 0 0 1 30 20 397 0 24 219 7 0 --.01
8 -.0075 0 .707106781186546 -.707106781186549 0 16 24 395 0 ?41 10 220 20 0 0 1
 17 41 0 131 222 223 34 63 24 0 190 +15 131 139 0 222 16 0 17 222 0 131 23 41 42
 190 188 0 0 -17 223 0 131 41 224 61 90 176 0 0 -17 63 0 225 226 227 61 41 24 0
 202 -17 190 0 228 51 221 34 222 188 0 227 +15 228 80 0 229 230 0 17 51 0 228 22
9 190 49 227 218 0 181 +17 221 0 228 190 229 42 231 220 0 222 +17 227 0 225 63 2
32 34 51 218 0 0 -15 225 484 0 232 18 0 17 232 0 225 227 226 49 69 205 0 0 -17 2
26 0 225 232 63 67 202 200 0 0 -17 69 0 233 184 181 67 232 205 0 234 +15 233 3 0
 184 235 0 17 184 0 233 81 69 64 234 182 0 236 +17 181 0 233 69 54 49 229 179 0
 232 +17 234 0 237 202 66 67 184 182 0 226 -15 237 78 0 168 238 0 17 202 0 237 9
0 234 61 226 200 0 223 +17 66 0 237 234 168 64 239 203 0 184 +17 168 0 237 66 24
0 73 93 166 0 239 +17 239 0 241 84 236 73 66 203 0 0 -15 241 421 0 236 242 0 17
 84 0 241 243 239 82 75 198 0 195 -17 236 0 241 239 243 64 81 211 0 0 -17 243 0
 241 236 84 79 195 193 0 0 -17 81 0 233 174 184 79 236 211 0 244 +17 174 0 233 6
0 81 76 244 172 0 245 +17 244 0 246 195 78 79 174 172 0 243 -15 246 84 0 244 247
 0 17 195 0 246 248 244 82 243 193 0 165 +17 78 0 246 244 248 76 249 185 0 174 +
17 248 0 246 78 195 85 165 148 0 249 -17 249 0 250 72 245 85 78 185 0 0 -15 250
 442 0 245 251 0 17 72 0 250 252 249 70 87 196 0 217 -17 245 0 250 249 252 76 60
 209 0 0 -17 252 0 250 245 72 58 217 215 0 0 -17 60 0 233 178 174 58 245 209 0 2
53 +17 178 0 233 54 60 55 253 175 0 254 +17 253 0 255 217 57 58 178 175 0 252 -1
5 255 82 0 253 256 0 17 217 0 255 257 253 70 252 215 0 171 +17 57 0 255 253 187
 55 258 213 0 178 +17 187 0 255 57 259 47 260 169 0 258 +17 258 0 261 46 254 47
 57 213 0 0 -15 261 463 0 254 262 0 17 46 0 261 231 258 42 23 10 0 221 -17 254 0
 261 258 231 55 54 207 0 0 -17 231 0 261 254 46 52 221 220 0 0 -17 54 0 233 181
 178 52 254 207 0 229 +17 229 0 228 221 51 52 181 179 0 231 -17 23 0 131 260 222
 47 46 10 0 187 +17 260 0 131 224 23 97 187 169 0 0 -17 224 0 131 223 260 88 99
 152 0 0 -17 99 0 263 156 162 97 224 152 0 259 +15 263 227 0 99 264 0 17 156 0 2
63 159 99 94 259 154 0 257 +17 162 0 263 99 159 88 240 160 0 224 +17 259 0 255 1
87 257 97 156 154 0 260 -17 257 0 255 259 217 94 171 163 0 0 -17 171 0 265 87 96
 70 257 163 0 0 +15 265 220 0 165 266 0 17 87 0 265 165 171 85 72 196 0 248 +17
 96 0 265 171 93 94 159 157 0 156 -17 93 0 265 96 75 91 168 166 0 159 -17 159 0
 263 162 156 91 96 157 0 240 +17 240 0 237 168 90 91 162 160 0 0 -17 90 0 237 24
0 202 88 223 176 0 162 +17 75 0 265 93 165 73 84 198 0 168 +17 165 0 265 75 87 8
2 248 148 0 0 +14 255 266 217 267 ?264 235 265 5 268 -0 0 264 235 22 81 1 267 82
1 269 266 270 0 0 271 272 14 264 225 271 ?242 266 263 5 273 +0 0 242 266 22 14 2
35 1 274 ?266 238 275 5 276 +0 0 266 238 22 50 268 235 0 266 273 276 0 +.005 -.0
075 .003 0 0 1 1 0 0 13 22 29 0 0 0 0 0 0 9 16 14 16 141 277 ?247 0 129 5 278 -0
 0 247 0 22 81 1 277 824 269 16 279 0 274 280 281 14 247 85 280 ?256 16 246 5 28
2 -0 0 256 16 22 50 278 65 0 16 276 283 0 +0 0 0 0 0 1 1 0 0 50 276 2 0 235 268
 278 0 +0 0 .008 0 0 1 1 0 0 50 283 86 0 238 278 284 0 +-.02 -.0075 .008 0 1 0 0
 0 1 14 238 79 285 ?235 230 237 5 283 -0 0 235 230 22 50 284 87 0 230 283 286 0
 +-.02 .0075 .008 1 462592926927149e-30 0 -462592926927149e-30 1 0 14 230 81 287
 ?238 256 228 5 284 -0 0 238 256 22 50 286 88 0 256 284 282 0 +-.02 .0075 .008 0
 -1 0 0 0 -1 14 256 83 288 ?230 247 255 5 286 -0 0 230 247 22 50 282 89 0 247 28
6 289 0 +.02 .0075 .008 -1 0 0 0 0 1 50 289 432 0 242 282 290 0 -.02 -.0055 .008
 -.707106781186546 .707106781186549 0 0 0 -1 14 242 420 291 ?251 264 241 5 289 +
0 0 251 264 22 50 290 453 0 251 289 19 0 -.018 .0075 .008 -.707106781186548 -.70
7106781186547 0 0 0 -1 14 251 441 292 ?262 242 250 5 290 +0 0 262 242 22 50 19 4
74 0 262 290 6 0 --.02 .0055 .008 .707106781186546 -.707106781186549 0 0 0 -1 14
 262 462 293 ?18 251 261 5 19 +0 0 18 251 22 81 1 293 831 269 262 294 0 292 295
 296 14 18 483 295 ?116 262 225 5 6 +0 0 116 262 22 81 1 295 832 269 18 297 0 29
3 298 299 14 116 606 298 ?300 18 35 5 301 -0 0 300 18 22 81 1 298 833 269 116 30
2 0 295 303 304 14 300 610 303 ?305 116 306 5 307 -0 0 305 116 22 51 255 301 630
 0 116 308 273 0 +-.016 1127570259384924e-32 0 0 0 1 .00225 1 0 0 50 308 631 0 1
28 309 301 0 +-.016 -.00225 0 72280144832367e-30 -1 0 1 72280144832367e-30 0 50
 273 238 0 264 301 268 0 +.005 0 0 1 0 0 0 0 -1 14 128 618 310 ?0 305 120 5 308
 -0 0 0 305 22 51 309 632 0 305 307 308 0 +-.004 1127570259384924e-32 0 0 0 1 .0
0225 1 0 0 14 305 614 311 ?128 300 27 5 309 -0 0 128 300 22 50 307 633 0 300 0 3
09 0 +-.004 .00225 0 72280144832367e-30 1 0 -1 72280144832367e-30 0 81 1 311 836
 269 305 312 0 310 0 313 15 27 617 0 144 305 0 17 144 0 27 29 28 104 314 136 0 3
15 +17 29 0 27 25 144 111 106 149 0 132 -17 28 0 27 144 25 107 32 123 0 121 +17
 314 0 275 122 315 107 144 136 0 0 -17 315 0 275 314 38 104 135 133 0 0 -15 275
 545 0 38 235 233 17 38 0 275 315 122 101 33 39 0 0 -17 135 0 306 110 106 101 31
5 133 0 38 +15 306 613 0 135 300 0 17 110 0 306 132 135 100 37 146 0 113 -17 106
 0 306 135 132 104 29 149 0 144 +17 132 0 306 106 110 111 119 124 0 30 -17 30 0
 129 119 126 111 25 31 0 0 +17 37 0 35 33 113 101 110 146 0 135 +17 122 0 275 38
 314 26 121 142 0 0 -17 121 0 120 32 40 107 122 142 0 314 +80 255 1 269 316 317
 9000 1 1 1 1 1 1 1 1 0 FFFFTFTFFFFFFF1 81 1 312 785 318 305 0 311 319 320 321 8
1 1 310 835 269 128 320 0 303 311 322 82 255 1 313 1615200564 81 1 320 786 318 1
28 0 310 312 0 323 81 1 303 834 269 300 319 0 298 310 324 82 1 322 1615331636 81
 1 319 784 318 300 0 303 302 312 325 82 1 324 1615069492 80 1 318 0 326 8001 0 0
 0 0 3 5 0 0 0 FFFFTFTFFFFFFF2 81 1 302 783 318 116 0 298 297 319 327 83 255 3 3
25 .866666666666667 .866666666666667 .890196078431373 81 1 297 782 318 18 0 295
 294 302 328 83 3 327 .866666666666667 .866666666666667 .890196078431373 81 1 29
4 781 318 262 0 293 329 297 330 83 3 328 .866666666666667 .866666666666667 .8901
96078431373 81 1 329 780 318 251 0 292 331 294 332 83 3 330 .866666666666667 .86
6666666666667 .890196078431373 81 1 292 830 269 251 329 0 291 293 333 81 1 331 7
79 318 242 0 291 334 329 335 83 3 332 .866666666666667 .866666666666667 .8901960
78431373 81 1 291 829 269 242 331 0 288 292 336 81 1 334 778 318 264 0 271 270 3
31 337 83 3 335 .866666666666667 .866666666666667 .890196078431373 81 1 271 822
 269 264 334 0 267 274 338 81 1 270 777 318 266 0 267 339 334 340 83 3 337 .8666
66666666667 .866666666666667 .890196078431373 81 1 339 776 318 235 0 274 341 270
 342 83 3 340 .866666666666667 .866666666666667 .890196078431373 81 1 274 823 26
9 235 339 0 271 277 343 81 1 341 775 318 238 0 285 344 339 345 83 3 342 .8666666
66666667 .866666666666667 .890196078431373 81 1 285 826 269 238 341 0 280 287 34
6 81 1 344 774 318 230 0 287 347 341 348 83 3 345 .866666666666667 .866666666666
667 .890196078431373 81 1 287 827 269 230 344 0 285 288 349 81 1 347 773 318 256
 0 288 350 344 351 83 3 348 .866666666666667 .866666666666667 .890196078431373 8
1 1 288 828 269 256 347 0 287 291 352 81 1 350 772 318 247 0 280 279 347 353 83
 3 351 .866666666666667 .866666666666667 .890196078431373 81 1 280 825 269 247 3
50 0 277 285 354 81 1 279 771 318 16 0 277 0 350 355 83 3 353 .866666666666667 .
866666666666667 .890196078431373 83 3 355 .866666666666667 .866666666666667 .890
196078431373 82 1 354 -335019726 82 1 352 -335281870 82 1 349 -335544014 82 1 34
6 -335806158 82 1 343 -342359756 82 1 338 1547043121 82 1 336 1568145714 82 1 33
3 1570111794 79 255 15 326 SDL/TYSA_COLOUR83 3 323 .866666666666667 .86666666666
6667 .890196078431373 83 3 321 .866666666666667 .866666666666667 .89019607843137
3 79 14 317 SWEntUnchanged82 1 304 1615462708 82 1 299 1574043954 82 1 296 15720
77874 82 1 281 1557463348 82 1 272 1553727794 19 17 95 0 1 0 9 5 S0 74 4 CI16 in
dex_map_offset0 0 1 dCCZ20 15 8 0 0 356 357 311 358 359 13 320 2 0 0 0 0 0 0 0 0
 0 0 0 0 81 2 356 119 360 1 0 357 0 0 0 361 81 2 357 123 362 1 356 358 0 0 0 363
 81 2 358 676 364 1 357 359 0 0 365 0 81 2 359 693 366 1 358 13 0 0 0 367 81 2 1
3 753 368 1 359 2 0 0 0 0 80 2 368 369 370 9000 0 0 0 0 3 5 0 0 0 FFTFFFFFFFFFFF
9 1 79 16 370 BODY_RECIPE_200180 2 366 371 372 9000 0 0 0 0 3 5 0 0 0 FFTFFFFFFF
FFFF9 1 82 1 367 1 79 24 372 BODY_IN_LIGHTWEIGHT_PERM80 2 364 373 374 8004 0 0 0
 0 3 5 0 0 0 FFTFFFFFFFFFFF2 3 83 1 365 27e2 79 16 374 SDL/TYSA_DENSITY80 2 362
 375 376 9000 0 0 0 0 3 5 0 0 0 FFTFFFFFFFFFFF9 1 82 1 363 167 79 30 376 LAST_BO
DY_MODIFYING_FEATURE_ID80 2 360 377 378 9000 0 0 0 0 3 5 0 0 0 FFTFFFFFFFFFFT9 1
 82 1 361 257 79 19 378 ENT_TIME_STAMP_200180 2 12 379 380 9000 0 0 0 0 3 5 0 0
 0 FFTFFFFFFFFFFF9 1 82 1 14 111 79 12 380 ATOM_ID_20011 0 
